<?xml version="1.0" encoding="utf-8"?>
<!-- Generator: Adobe Illustrator 22.0.1, SVG Export Plug-In . SVG Version: 6.00 Build 0)  -->
<svg version="1.0" xmlns="http://www.w3.org/2000/svg" xmlns:xlink="http://www.w3.org/1999/xlink" x="0px" y="0px"
	 viewBox="0 0 350 100" style="enable-background:new 0 0 350 100;" xml:space="preserve">
<g id="Layer_1">
</g>
<g id="Layer_2">
	<g>
		<path d="M27.3,31.3c0.5,0.1,0.8,0.8,1,1.1c0.2,0.3,0.9,0.9,0.9,1.2c0.3-0.2,1.4-0.9,1.7-0.6c0.7,0.5-1.1,1.1-1.2,1.1
			c0.1,0.3,0.4,0.7,0.8,0.7c0.1,0,0.3-0.3,0.5-0.3c0.1,0,0.2,0.4,0.4,0.5c0.5,0.3,1.3,0,1.8-0.1c0.8-0.1,1.9-0.8,2.3-1.6
			c0.1-0.4,0.1-1,0.6-1.1c0.7-0.2,0.8,0.5,0.7,1c-0.3,1.7-2.4,2.8-3.7,3.7c-1,0.8-2,1.6-3,2.4c-0.4,0.3-1.9,0.9-2,1.4
			c0.6,0.1,1.5-0.7,1.9-1.1c0.8-0.5,1.5-1.1,2.3-1.6c0.8-0.6,1.6-1.2,2.4-1.8c0.2-0.2,1.2-0.9,1-0.1c-0.1,0.5-1.7,1.4-2.1,1.7
			c-0.6,0.5-1.2,0.9-1.8,1.4c-0.5,0.3-0.9,0.6-1.4,0.9c-0.2,0.1-0.8,0.3-0.8,0.5c0.5,0.1,1.4-0.8,1.8-1c0.6-0.4,1.2-0.8,1.8-1.2
			c0.4-0.2,0.7-0.6,1.1-0.8c0.1-0.1,0.2-0.1,0.3-0.2c0.1,0.1,0.3,0.1,0.4,0.1c0.5-0.3,1.1-1.4,1.4-1.9c0.3-0.6,0.6-1.2,0.9-1.8
			c0.1-0.4,0.2-1.4,0.5-1.6c0.7-0.5,1.3,0.5,0.9,1.1c0.7,0,0.5,0.5,0.3,1c-0.3,0.7-0.5,1.3-0.8,2c-0.5,1-1,1.9-1.7,2.8
			c-0.8,1-1.7,1.9-2.9,2.5c-0.6,0.3-0.6,0.2-0.6,1c0,0.7,0.1,1.4,0.1,2.1c0.2,4.4-0.1,8.8,0.1,13.1c0,0.5-0.1,0.6,0.3,0.6
			c0.3,0,0.9-0.3,1.2-0.5c0.5-0.2,1-0.5,1.4-0.8c0.2-0.1,0.3-0.2,0.5-0.3c0.2-0.1,0.4-0.4,0.6-0.5c0.4-0.2,0.9-0.1,1,0.5
			c0,0.3-0.2,0.5-0.4,0.8c-0.5,0.6-1.1,1.1-1.6,1.7c-0.6,0.8-1.4,1.5-2.2,2.2c-0.1,0.1-0.3,0.2-0.4,0.4c-0.1,0.1,0,0.2-0.1,0.3
			c-0.1,0.1-0.1,0.3-0.3,0.5c-0.3,0.4-0.7,0.7-1,1c-1.7,1.3-3.8,2-5.9,2.3c-2.6,0.4-5,0.4-7.4-0.7c-1.3-0.6-2.4-1.3-3.4-2.3
			C14.4,62.3,13,61,13,59.8c-1.9,1-3.6,3-3.5,5.2c0.1,2.4,1.9,3.8,3.9,4.7c1.4,0.6,2.7,0.8,4.1,0.9c0.7,0.1,1.6,0.2,2.3,0
			c0.6-0.1,1.8-1.5,0.7-1.8c-0.4-0.1-1.3,0.5-1.6,0.2c-0.9,0-1.7-0.1-2.2-1.1c-0.3-0.6-0.3-1.4,0.4-1.8c0.6-0.4,1.7-0.1,2.3,0.1
			c0.9,0.3,1.6,1,2.2,1.8c0.5,0.8,0.7,1.3,0.4,2.2c-0.2,0.9-1,2.5-2.1,2.8c-0.6,0.1-1.4,0-2,0c-1.2-0.1-2.4-0.2-3.6-0.6
			c-1-0.3-2.1-0.7-3.1-1.1c-0.6-0.2-1.5-0.5-2-1.1c-1.1-1.3-1.7-3.4-1.4-5c0.4-2.3,1.2-4.1,3.1-5.6c0.6-0.5,1.5-0.9,2.1-1.4
			c0.3-0.3,0.3,0.1,0.1-0.5c-0.3-0.6-0.7-1.2-0.9-1.9c-1.7-4.1-1.1-8.4,0.7-12.4c-2,1.7-2,5.2-2,7.6c0,1.6,0,3.4,0.6,5
			c0.2,0.5,0.4,1,0.8,1.4c0.2,0.2,0.6,0.6,0.3,0.9c-0.7,0.8-2-3-2.1-3.5c-0.3-1.2-0.3-2.5-0.3-3.7c0-2.7,0.1-6.1,2.2-8.1
			c1-0.9,2-1.7,2.9-2.7c0.2-0.2,0.4-0.5,0.7-0.6c0.1,0,0.1-0.1,0.2-0.1c0.1,0,0.2,0,0.3,0.1c0.1-0.1,0.1-0.2,0.2-0.2
			c0.7-0.4,1.4-0.7,1.4,0.4c1.3-0.6,2.2-1.9,3.2-2.8c1-0.9,1.9-1.8,2.9-2.7c0.6-0.6,1.3-1.2,1.9-1.9C26.4,32.2,26.9,31.3,27.3,31.3z
			 M8.5,66.8c-0.1,1,0.7,2.6,1.5,3.2c0-0.3,0.4-0.4,0.4-0.6c0-0.1-0.9-0.8-1-0.9c-0.3-0.3-0.5-0.6-0.7-1C8.7,67.3,8.7,66.8,8.5,66.8
			z M10.9,69.9c0,0.1-0.4,0.4-0.4,0.4C10.9,70.7,11.8,69.9,10.9,69.9z M11.9,70.4c0,0.3-0.4,0.2-0.3,0.3c0,0.3,0.5,0.1,0.6,0.1
			C12.9,70.7,12.3,70.5,11.9,70.4z M12.6,48.3c0,0.4-0.1,0.8-0.2,1.1c0.6-0.4,1.2-0.8,1.8-1.2c0.6-0.4,0.4-0.7,0.4-1.4
			C14,47.2,13.3,47.8,12.6,48.3z M12.4,50.1c0,0.5,0,1.1,0.1,1.6c0.5-0.2,0.9-0.6,1.3-0.9c0.3-0.2,1.1-0.7,1.1-0.9
			c0.1-0.2-0.3-1-0.3-1.2C13.9,49.2,13.2,49.7,12.4,50.1z M12.6,52.4c0.1,0.3,0.2,0.7,0.2,1c0.8-0.5,1.6-1.1,2.3-1.7
			c0.7-0.6,0.2-0.4,0.2-1.2c-0.6,0.5-1.2,1-1.8,1.4C13.2,52.1,12.9,52.4,12.6,52.4z M12.8,47.3c0.5-0.4,1.1-0.8,1.6-1.3
			c0.3-0.4,0.3-0.6,0.4-1.1C14,45.2,12.8,46.4,12.8,47.3z M13,54.1c0,0.2,0.1,0.8,0.3,0.9c0.2,0,0.6-0.5,0.7-0.6
			c0.4-0.3,0.8-0.7,1.2-1c0.2-0.2,0.4-0.4,0.6-0.6c0.4-0.4,0.2-0.3,0.2-0.8c-0.7,0.2-1.3,1-1.9,1.5C13.8,53.6,13.3,54.1,13,54.1z
			 M13.1,71.1c0.1,0,0,0.1,0.2,0.1c0,0,0-0.1,0-0.1C13.2,71.1,13.1,71.1,13.1,71.1z M13.4,55.6c0.3,0.5,0.2,0.5,0.6,0.2
			c0.7-0.5,1.3-1.1,2-1.6c0.2-0.2,0.9-0.5,0.8-0.8c-0.1-0.9-0.9,0.1-1.1,0.3C15,54.4,14.2,55,13.4,55.6z M13.5,59.5
			c0.1,0,0.2,0.3,0.2,0.4c0.1,0.3,0.2,0.6,0.5,0.9c0.4,0.6,0.9,1.1,1.4,1.6c0.9,0.9,1.8,1.6,3,2c0-0.2,0.1-0.3,0.2-0.5
			c-0.9,0-2.3-1.7-2.7-2.3c-0.3-0.4-0.5-0.8-0.8-1.2c-0.3-0.3-0.5-0.8-0.9-1.1c-0.3-0.2-0.2-0.4-0.6-0.1
			C13.7,59.3,13.5,59.4,13.5,59.5z M13.6,45c1.2-0.8,1.4-1.4,1.8-2.7C14.5,43,14,44,13.6,45z M13.9,71.4c0,0.1,0,0.1,0,0.2
			c0.2,0,0.3-0.2,0.3-0.3C14.1,71.4,14,71.4,13.9,71.4z M13.9,56.7c0.2,0.3,0.3,0.7,0.6,0.6c0.3,0,0.8-0.6,1-0.7
			c0.8-0.6,1.6-1.2,2.4-1.9c-0.3-0.3-0.5-0.8-0.8-0.8c-0.3,0-0.8,0.7-1.1,0.9C15.4,55.5,14.7,56.1,13.9,56.7z M14.7,71.8
			c0,0.3,0.3,0.2,0.6,0.3C15.2,71.4,15.2,71.8,14.7,71.8z M14.8,57.9c0.2,0.8,0.5,0.5,1,0.2c0.7-0.5,1.3-1,2-1.5
			c0.3-0.2,0.9-0.8,1.2-0.5c0.3,0.3-0.1,0.5-0.2,0.6c-0.6,0.6-1.4,1-2.1,1.5c-0.3,0.2-1.3,0.7-0.9,1.1c0.3,0.3,1.1-0.7,1.5-1
			c0.7-0.6,1.5-1.3,2.3-1.7c-0.3-0.3-0.5-0.6-0.8-0.8c-0.4-0.4-0.3-0.4-0.6-0.3c-0.4,0.1-0.8,0.6-1.1,0.8
			C16.3,56.8,15.6,57.4,14.8,57.9z M15.9,47.4c0.4,0.1,0,0.4,0,0.5c0,0.4,0.1,0.8,0.2,1.2c0.2-0.2,0.6-0.1,0.6,0.2
			c0,0.5-0.6,0.3-0.1,1.1c0.2,0.2,0.3,0.4,0.4,0.6c0,0.1-0.1,0.3,0.1,0.4c0.1,0.1,0.5-0.2,0.6,0.3c0,0.1-0.1,0.2,0,0.3
			c0,0.1-0.1,0.1-0.1,0.2c0.1,0.1,0.2,0.3,0.3,0.4c0.4,0.6,0.9,1.2,1.4,1.7c0.7,0.8,1.4,1.5,2.2,2.1c0.4-1.1,0.7-2,0.5-3.2
			c-0.3-1.9-2.1-3.2-3.4-4.3c-0.6-0.5-1.1-0.8-1.8-1.2c-0.4-0.2-0.4-0.2-0.4-0.6c0-0.3,0.1-0.7,0.2-1c0.2-1.1,0.3-2.1,0.3-3.3
			C15.9,42.7,15.9,46.9,15.9,47.4z M15.9,72c0.1,0.1,0.4,0.2,0.6,0.3c0-0.1,0-0.3,0-0.4C16.3,71.9,16.1,72,15.9,72z M20,56.9
			c0,0.4-1.3,1.2-1.5,1.4c-0.5,0.4-2.6,1.5-1.8,2.2c0.4,0.3,0,0.3,0.5,0c0.4-0.2,0.7-0.6,1.1-0.9c0.5-0.4,1-0.8,1.5-1.2
			c0.2-0.1,1-0.5,1-0.7c0.1-0.3,0.1,0.1,0-0.2C20.8,57.3,20.1,57,20,56.9z M17.4,41.9c0.1,0.6,0.1,1.2,0.1,1.9
			c0,1.1-0.4,2.2-0.4,3.3c1.4,0.3,2.6,1.9,3.5,2.8c0.8,0.9,1.7,1.6,1.9,2.8c0.2,0.8,0.1,1.4,0.1,2.2c0.3-0.1,0.4-1.3,0.3-1.7
			c0-0.1-0.2-0.2-0.2-0.4c-0.1-0.2,0.2-0.5,0.2-0.8c0-0.2-0.3-0.1-0.3-0.4c-0.1-0.2,0.1-0.4,0-0.6c-0.1-0.4-0.7-0.9-1-1.1
			c-0.7-0.7-1.4-1.3-2.1-2c-0.5-0.5-1.8-1.3-1.9-2.2c0-0.4,0.3-1.1,0.4-1.5c0.1-0.6,0.2-1.1,0.3-1.7c0.1-0.6,0.1-1.1,0.1-1.7
			C17.9,41.1,17.4,41.5,17.4,41.9z M21.3,57.8c-0.3,0.8-1,1-1.7,1.5c-0.8,0.6-1.6,1.3-2.3,2c0.3,0.3,0.4,0.6,0.8,0.5
			c0.4-0.1,0.9-0.6,1.2-0.8c0.7-0.5,1.4-1,2.1-1.5c0.2-0.1,1.1-0.6,1-0.9C22.5,58.4,21.4,57.9,21.3,57.8z M17.4,40.7
			c0.2-0.1,0.3-0.2,0.3-0.4C17.6,40.3,17.5,40.6,17.4,40.7z M17.5,72.3c0.4,0.1,1.2,0.1,1.4-0.3C18.7,72,17.5,71.8,17.5,72.3z
			 M17.8,67.3c0,0.6,1.1,0.8,1.5,0.6c0.5-0.2-0.3-0.4-0.6-0.5C18.4,67.3,18.1,67.3,17.8,67.3z M23.1,58.9C21.8,60,20.4,61.1,19,62
			c-0.1,0.1-0.5,0.2-0.5,0.4c0,0.2,0.5,0.5,0.7,0.4c0.1,0,0.4-0.3,0.6-0.4c1.4-1,2.7-2.1,4.1-3.1C23.6,59.3,23.3,59,23.1,58.9z
			 M21.1,44.1c-0.6,0.5-1.2,0.8-1.8,1.2c-0.4,0.2-0.5,0.1-0.3,0.5c0.2,0.3,0.7,0.7,0.9,0.9c0.4,0.4,0.9,1,1.4,1.3
			c-0.2-0.4,0.3-0.5,0.6-0.6c0.6-0.2,1.1-0.5,1.7-0.9c0.2-0.1,0.5-0.2,0.5-0.4c-0.1-0.7-0.7-0.1-0.9,0c-0.5,0.3-1.6,1.3-2.2,1.3
			c-0.2,0-0.3-0.1-0.4-0.3c-0.1-0.4,0.3-0.4,0.5-0.5c0.7-0.4,1.4-0.8,2-1.4c-0.7-0.6-1.4,0.5-2.1,0.9c-0.2,0.1-1.2,0.6-1-0.1
			c0.1-0.4,1.5-1,1.8-1.2C22,44.4,21.9,44.1,21.1,44.1z M25.6,65.2c-0.9,0-1.8,0-2.7,0c-0.4,0-0.7,0-1.1-0.1
			c-0.5-0.1-0.9-0.2-1.4-0.4c-0.2-0.1-0.5-0.2-0.7-0.2c-0.2,0-0.4,0.2-0.6,0.2c2.1,1.2,4.2,1.1,6.6,0.8c1.9-0.3,3.7-0.7,5.3-1.8
			c-0.9,0.2-1.8,0.8-2.7,1.1C27.4,65,26.5,65.2,25.6,65.2z M19.2,44.6c0.4-0.2,1-0.5,1.3-0.8c0.2-0.3,0.3-0.2-0.1-0.4
			c-0.3-0.1-0.2-0.2-0.5,0c-0.1,0.1-0.3,0.2-0.4,0.3C19.2,43.9,19.2,44.3,19.2,44.6z M19.5,40.9c-0.2,0.6-0.1,1.3-0.2,2
			c0.5-0.2,0.3-0.3,0.3-0.7C19.7,41.8,19.7,41.1,19.5,40.9z M19.7,72c0,0.2-0.1,0.4-0.3,0.5c0.3,0,0.7-0.2,0.8-0.5
			C20.1,72,19.9,72,19.7,72z M24.4,59.6c-0.5,0.6-1,1.2-1.7,1.6c-0.3,0.1-0.5,0.2-0.8,0.4c-0.7,0.5-1.4,1.1-2.1,1.6
			c0.1,0,0.4,0.2,0.5,0.2c0.5-0.1,1.3-1,1.7-1.3c1-0.8,2-1.6,2.9-2.5C24.7,59.7,24.5,59.6,24.4,59.6z M20.3,39.9
			c0.2,0.7,2.4-1.3,2.5-1.4c0.9-0.8,1.8-1.5,2.7-2.3c0.5-0.5,1.7-1.8,2.6-1.8c-0.2-0.2-0.8-0.8-0.8-1.2C25,35.4,22.6,37.6,20.3,39.9
			z M25.6,59.9c-1.4,1.4-3,2.5-4.5,3.8c0.8,0,1.4-0.4,2.1-0.9c1.1-0.8,2.2-1.7,3.3-2.6C26.1,60.1,25.8,60,25.6,59.9z M21.5,41.9
			c0,0.4-0.4,0.4,0.1,0.8c0.2,0.1,0.5,0.1,0.6,0.2c0.2,0.1,0.4,0.5,0.6,0.6c0.9,0.7,1.9,1.2,2.8,2c0.3,0.3,0.5,0.7,0.8,0.9
			c0.5,0.5,1,1,1.4,1.5c0.5,0.6,0.9,1.2,0.9,2.1c0.1,1.9-0.8,3.8-2.3,5.1c-1,0.8-2.2,1.5-3.2,2.3c0.8,0.5,1.6,0.9,2.5,1.2
			c0.5,0.2,1.5,0.5,2,0.3c0.3-0.1,0.5-0.7,0.9-0.6c0.5,0.1,0.2,0.5,0,0.7c0.5,0,0.9,0.1,1.5,0c0.2,0,1.4,0,1.6-0.2
			c0.1-0.2-0.1-1.4-0.1-1.6c-0.1-2.7-0.2-5.3-0.1-8c0-1.4,0-2.9,0-4.3c0-0.5,0.1-2.4-0.4-2.5c-0.5-0.1-1.6,0.4-2.1,0.5
			c-0.7,0.2-1.4,0.4-2.1,0.5c-0.5,0.1-5.6-0.1-4.6-1.3C22.1,42.2,21.8,42.1,21.5,41.9z M21.4,40.6c0.6,0.2,1.8,0.9,2.5,0.7
			c0.3-0.1,0.8-0.6,1.1-0.8c0.7-0.4,1.3-0.8,1.9-1.3c1.3-1,2.7-2,4-3c-0.2,0-0.3-0.1-0.5-0.1C30,36,30,36,29.6,36.2
			c-0.5,0.3-1,0.8-1.4,1.2c-0.8,0.7-1.7,1.3-2.5,2c-0.6,0.4-2.1,1.7-2.9,1.5c-0.3-0.1-0.5-0.6-0.1-0.8c0.3-0.1,0.4,0.1,0.5,0.1
			c0.4,0,0.9-0.4,1.2-0.7c1.8-1.2,3.4-2.6,5-3.9c-0.5,0-0.5-0.6-0.8-0.7c-0.1,0-0.3,0.1-0.4,0.2c-0.5,0.3-1,0.7-1.5,1
			c-0.8,0.6-1.5,1.2-2.3,1.9c-0.5,0.4-1,0.9-1.5,1.3C22.7,39.5,21.4,40.4,21.4,40.6z M21.5,48.2c0,0.1,0.4,0.4,0.5,0.5
			c0.4,0.2,0.6,0.1,1.1-0.2c0.7-0.4,1.4-0.9,2.1-1.4c-0.1-0.1-0.4-0.5-0.6-0.5c-0.3,0-1,0.6-1.3,0.8C22.8,47.6,22.1,48.2,21.5,48.2z
			 M27.2,60.3c-1.5,1.3-2.9,2.6-4.5,3.7c0.4,0,1.1,0.1,1.5,0.1c0.5-0.1,1.1-0.8,1.5-1.1c0.5-0.4,0.9-0.8,1.4-1.1
			c0.2-0.2,1.5-1.1,1.5-1.3C28.5,60.4,27.3,60.3,27.2,60.3z M25.6,47.6c-0.7,0.5-1.4,1-2.1,1.4c-0.1,0.1-0.6,0.2-0.7,0.3
			c-0.1,0.2,0.3,0.4,0.3,0.6c0.6-0.4,1.3-0.8,1.9-1.3C25.5,48.3,26.3,48,25.6,47.6z M26.2,42.6c-1.1,0-2.1-0.1-3.2-0.3
			c0.5,0.4,1.4,0.4,2,0.5c1.1,0.1,2,0.1,3-0.2c0.9-0.2,1.8-0.5,2.8-0.7c0.5-0.1,0.9,0,0.8-0.6c-0.9,0.1-1.9,0.6-2.9,0.8
			C27.8,42.5,27,42.6,26.2,42.6z M26.4,48.4c-0.7,0.6-1.5,1.1-2.2,1.6c-0.2,0.1-0.4,0.2-0.6,0.4c0.1,0.1,0.1,0.3,0.2,0.4
			c0.3,0.1,0.5-0.2,0.7-0.3c0.6-0.4,1.2-0.8,1.7-1.2c0.2-0.1,0.6-0.3,0.7-0.5C26.7,48.8,26.4,48.4,26.4,48.4z M24,54.8
			c0.9-0.4,1.8-1.5,2.5-2.2c0.4-0.4,1-0.8,1-1.5c-0.9,0.8-1.8,1.5-2.7,2.3C24.2,54,24.3,54.1,24,54.8z M27.1,49.4
			c-0.7,0.6-1.4,1.1-2.2,1.6c-0.4,0.3-1,0.3-0.8,0.9c0.7-0.2,1.4-1.1,2-1.5c0.4-0.3,1-0.6,1.2-0.9C27.2,49.4,27.1,49.4,27.1,49.4z
			 M24.6,52.4c0,0.1,0.1,0.2,0.1,0.3c0.8-0.7,1.6-1.3,2.3-2c0.2-0.2,0.5-0.4,0.6-0.7C26.6,50.7,25.4,51.5,24.6,52.4z M24.9,41.3
			c0,0.1,0,0.1,0,0.2c0.4-0.2,0.9-0.1,1.4-0.1c-0.5-0.6,1.9-1.6,2.2-1.8c1.5-1,2.9-2.1,4.3-3.3c-1.1,0-2,0.9-2.8,1.5
			c-1,0.7-2,1.5-3.1,2.2C26.4,40.4,25.5,41.3,24.9,41.3z M26.8,63c0.6-0.1,1.3-0.9,1.8-1.2c0.7-0.5,1.3-1,2-1.4c-0.9,0-1.4,0.5-2,1
			C28,61.9,27.4,62.4,26.8,63z M26.9,41.3c0.1,0.3,0.8,0,0.8-0.3C27.4,41,27.2,41.3,26.9,41.3z M26.9,63.8c2.8-0.3,5.3-2.2,7.2-4.2
			c-1.4,0-2.9,1.2-4,1.9C29,62.2,28,63,26.9,63.8z M35.7,38.5c-0.5,0.7-1.2,1.3-1.9,1.7c-0.4,0.3-1.3,0.3-1.2,1
			c0.7-0.3,1.4-0.8,1.9-1.3C34.9,39.7,35.9,38.8,35.7,38.5z M36.1,38.1c0,0.1-0.1,0.1-0.1,0.2C36.2,38.2,36.1,38.2,36.1,38.1z"/>
		<path d="M46.3,50.8c0,0.7-1.4,1.1-1.9,1.2c-0.9,0.2-2,0.2-2.9-0.3c-1.4-0.7-3.2-3.1-2.3-4.8c0.2-0.4,0.2-0.4,0.6-0.4
			c0.5,0,0.9,0,1.3,0c1-0.1,2-0.3,3-0.5c2-0.3,4.2-0.6,6.2-0.1c3.9,1,4.2,4.9,4.2,8.3c0,0.8,0,1.6,0,2.4c0,1.4-0.2,3,0.1,4.4
			c0.3,0.9,1.6,0.8,1.8,1.5c0.2,0.8-1.3,1.6-1.8,1.9c-2,1-4.7,0.6-5.6-1.7c-0.7,1-2.7,1.7-3.8,2c-1.4,0.3-3,0.1-4.2-0.7
			c-2-1.4-2.3-5.2-0.9-7.1c2-2.6,5.3-3.3,7.7-5.4c0.9-0.8,1-2.5-0.4-2.8c-0.6-0.2-1-0.1-1.3,0.4c-0.1,0.3-0.2,0.7-0.2,1
			C46,50.3,46.3,50.5,46.3,50.8z M46.7,60.8c2.8-0.4,2.2-4.4,2.2-6.3c-0.6,0.3-1.1,0.8-1.7,1.2c-0.6,0.4-1.2,0.9-1.7,1.5
			C44.6,58.4,44.5,61.1,46.7,60.8z"/>
		<path d="M65,40c-1,0.5-1,1.9-1,2.9c-0.1,0.7-0.4,2.9,0,3.4c0.7,0.6,2.4,0.6,3.1,0.2c0.5-0.3,0.9-0.9,1.2-1.3
			c0.3-0.5,0.4-0.9,0.9-0.6c1.9,1.3,1.8,4.2,0.5,5.9c-1.4,1.8-4.2,1.7-5.9,0.3c0,2.5,0,4.9,0,7.4c0,1.3-0.1,5.5,2.4,4.3
			c1-0.5,0.8-2.2,0.5-3.1c-0.3-0.9-2.1-1.9-0.6-2.6c2.3-1.1,5.3,0.3,5.9,2.8c0.5,2.5-1.9,4.4-4,5.2c-2.2,0.8-5.4,0.6-7.5-0.7
			c-1.1-0.7-1.8-1.6-2.4-2.8c-0.2-0.4-0.5-0.9-0.4-1.3c0.1-0.5,0.5-0.5,0.8-0.9c0.5-0.7,0.4-2.1,0.4-2.9c0-0.9,0-1.9,0-2.8
			c0-0.6,0-1.2,0-1.8c0-0.3,0-0.7,0-1c0-0.6,0.2-1.5-0.3-1.9c-0.7-0.5-1.4-0.3-2,0c-0.7,0.3-0.9-0.1-0.9-0.7c0-1.7,1.6-2.7,3.2-2.1
			c0-1.8-0.1-3.6-1.2-5.1c-0.4-0.5-1.5-1.3-1-2.1c0.5-0.8,1.4,0.3,2.2,0.4c1.9,0.3,3.5-1,5.3-1.2c0.7-0.1,1.6,0,2.2,0.5
			C67.6,39.4,65.7,39.6,65,40z"/>
		<path d="M80.6,54.2c1.3-1,2.5-3,1.7-4.7c-0.8-1.9-3.2-0.6-4.1,0.5c-1.8,2.3-1.9,6.8-0.1,9.1c2.2,2.8,5.7,3.5,8.8,1.7
			c0.5-0.3,1.6-1.2,1.6-0.1c0,0.6-0.5,1.2-1,1.7c-1.1,1.2-2.6,2-4.2,2.3c-3.6,0.8-7.1-0.4-9.5-3.2c-2.1-2.4-2.8-6.3-2.1-9.4
			c0.7-3.3,3.6-5.4,6.8-6.1c1.7-0.4,3.3-0.1,5-0.1c0.9,0,1.7-0.2,2.5-0.5c0.9-0.3,1-0.2,1.5,0.6c1.1,1.7,1.7,3.9,1.3,5.9
			c-0.4,1.9-2,3.3-3.6,4.1c-1.7,0.9-3.9,1.2-5.8,1.1c-0.7,0-1.6-0.2-1.2-1.2C78.5,55.3,79.9,54.7,80.6,54.2z"/>
		<path d="M98,40c-1,0.5-1,1.9-1,2.9c-0.1,0.7-0.4,2.9,0,3.4c0.7,0.6,2.4,0.6,3.1,0.2c0.5-0.3,0.9-0.9,1.2-1.3
			c0.3-0.5,0.4-0.9,0.9-0.6c1.9,1.3,1.8,4.2,0.5,5.9c-1.4,1.8-4.2,1.7-5.9,0.3c0,2.5,0,4.9,0,7.4c0,1.3-0.1,5.5,2.4,4.3
			c1-0.5,0.8-2.2,0.5-3.1c-0.3-0.9-2.1-1.9-0.6-2.6c2.3-1.1,5.3,0.3,5.9,2.8c0.5,2.5-1.9,4.4-4,5.2c-2.2,0.8-5.4,0.6-7.5-0.7
			c-1.1-0.7-1.8-1.6-2.4-2.8c-0.2-0.4-0.5-0.9-0.4-1.3c0.1-0.5,0.5-0.5,0.8-0.9c0.5-0.7,0.4-2.1,0.4-2.9c0-0.9,0-1.9,0-2.8
			c0-0.6,0-1.2,0-1.8c0-0.3,0-0.7,0-1c0-0.6,0.2-1.5-0.3-1.9c-0.7-0.5-1.4-0.3-2,0c-0.7,0.3-0.9-0.1-0.9-0.7c0-1.7,1.6-2.7,3.2-2.1
			c0-1.8-0.1-3.6-1.2-5.1c-0.4-0.5-1.5-1.3-1-2.1c0.5-0.8,1.4,0.3,2.2,0.4c1.9,0.3,3.5-1,5.3-1.2c0.7-0.1,1.6,0,2.2,0.5
			C100.6,39.4,98.7,39.6,98,40z"/>
		<path d="M111.7,50.8c0,0.7-1.4,1.1-1.9,1.2c-0.9,0.2-2,0.2-2.9-0.3c-1.4-0.7-3.2-3.1-2.3-4.8c0.2-0.4,0.2-0.4,0.6-0.4
			c0.5,0,0.9,0,1.3,0c1-0.1,2-0.3,3-0.5c2-0.3,4.2-0.6,6.2-0.1c3.9,1,4.2,4.9,4.2,8.3c0,0.8,0,1.6,0,2.4c0,1.4-0.2,3,0.1,4.4
			c0.3,0.9,1.6,0.8,1.8,1.5c0.2,0.8-1.3,1.6-1.8,1.9c-2,1-4.7,0.6-5.6-1.7c-0.7,1-2.7,1.7-3.8,2c-1.4,0.3-3,0.1-4.2-0.7
			c-2-1.4-2.3-5.2-0.9-7.1c2-2.6,5.3-3.3,7.7-5.4c0.9-0.8,1-2.5-0.4-2.8c-0.6-0.2-1-0.1-1.3,0.4c-0.1,0.3-0.2,0.7-0.2,1
			C111.3,50.3,111.7,50.5,111.7,50.8z M112.1,60.8c2.8-0.4,2.2-4.4,2.2-6.3c-0.6,0.3-1.1,0.8-1.7,1.2c-0.6,0.4-1.2,0.9-1.7,1.5
			C110,58.4,109.9,61.1,112.1,60.8z"/>
		<path d="M128.4,53.7c0,1.8,0.1,3.6,0.1,5.3c0,0.9-0.3,3.1,0.5,3.8c0.6,0.6,1.6,0.3,1.3,1.5c-0.2,0.7-0.8,0.9-1.5,1
			c-1.2,0.2-2.4-0.5-3.5-0.7c-0.7-0.1-1.4-0.2-2.1,0c-0.6,0.2-1.1,0.2-0.9-0.7c0.1-0.7,0.6-1.3,0.9-1.9c0.3-0.6,0.3-1.3,0.4-2
			c0.1-2.2,0.1-4.4,0.1-6.5c0-1.3,0.1-2.8-0.4-4c-0.5-1.1-2.6-1.8-2.1-3.2c0.4-1,2.5,0.1,3.3,0.1c0.7,0,1.5-0.1,2.2-0.2
			c0.5-0.1,1.6-0.6,2-0.1c0.4,0.5-0.2,1.3-0.3,1.8c0,0.3-0.1,0.7,0,1.1c0.1,0.5,0.1,0.5,0.5,0.2c0.7-0.5,1.2-1.3,1.8-1.9
			c0.6-0.6,1.3-1.2,2-1.6c2.8-1.5,5.3,2.2,6,4.5c1.2,3.7,0.2,8.1-1.3,11.6c-0.7,1.7-1.8,3.3-3.1,4.7c-0.3,0.3-2.2,2.9-2.9,2.4
			c1.6-4.2,3.1-8.7,2.3-13.2c-0.2-1.2-0.5-2.4-0.9-3.5c-0.2-0.7-0.6-1.6-1.3-2C129.8,49.2,128.4,52.3,128.4,53.7z"/>
		<path d="M166,32.4c0.9-0.2,0.8,1.2,0.4,1.6c-0.6,0.6-1.6,1.1-2.4,1.6c-1.5,1-3.1,2.4-4.8,2.7c-0.9,0.2-1.7,0-2.5-0.3
			c-0.8-0.4-1.4-1.1-2.3-1.5c-1.1-0.4-2.4-0.5-3.6,0.2c-0.3,0.2-0.5,0.3-0.5,0.7c0,0.3,0.3,0.7,0.5,0.9c0.4,0.4,1.5,0.6,1.7,1.1
			c0.4,0.9-0.8,0.8-1.3,0.6c-0.8-0.4-1.4-1-1.8-1.7c-1.9-3.4,1.2-6.8,4.5-7.3c2.1-0.3,4,0.4,5.9,1.1C161.8,33,163.9,33.2,166,32.4z
			 M150,35.9c0.1,0,0.1-0.1,0.2-0.1c-0.5-0.2,1.6-1.6,1.9-1.8c0.9-0.6,1.7-1.1,2.7-1.6C152.7,32.3,150.3,33.7,150,35.9z M152.5,35.1
			c1.4-0.8,2.8-1.7,4.2-2.5c-0.6-0.1-0.9-0.2-1.4,0.1c-0.5,0.3-1,0.6-1.6,0.9c-1,0.6-1.9,1.2-2.8,1.9
			C151.5,35.2,152,35.1,152.5,35.1z M172.8,33.1c0.6-0.3,0.9,0.6,0.6,1c-0.4,0.5-1,0.9-1.4,1.5c-0.8,1.3-1.2,2.9-1.4,4.4
			c-0.5,3.5-0.4,7-0.3,10.5c0.1,3.3,0,6.6-0.7,9.9c-0.5,2.7-1.8,4.9-4.2,6.2c-3.2,1.7-7,1.6-10.3,0.2c0.1-0.1,0.1-0.1,0.2-0.2
			c-0.8-0.2-4.2-1.3-4.1-2.4c0.1-0.9,1.3-0.3,1.8-0.3c0.8,0.1,1.6-0.1,2.4-0.4c0.7-0.3,1.5-0.8,1.9-1.6c0.3-0.6,0.1-0.8,0.1-1.4
			c0-0.6,0.2-1.1,0.2-1.7c-0.1-0.9-0.1-1.9-0.1-2.8c0-0.5,0-0.9,0-1.4c0-0.2,0.1-0.8,0-1c-0.3-0.6-1.4-0.1-1.9,0.1
			c-0.7,0.2-1.5,0.5-2.2,0.9c-0.4,0.2-1.7,0.7-1.5-0.3c0-0.2,0.5-0.9,0.6-1.1c0.3-0.7,0.7-1.3,1.2-1.9c0.5-0.5,1.1-1,1.7-1.3
			c0.4-0.2,0.8-0.3,1.2-0.4c0.7-0.1,0.6-0.1,0.8-0.7c-0.8-0.1-1.5-0.1-2.3,0.1c-0.6,0.1-1.8,0.9-2.3,0.7c-0.8-0.3-0.3-0.7-0.1-1.1
			c0.1-0.1,0.1-0.5,0.2-0.7c0.2-0.4,0.4-0.7,0.6-1c0.9-1.2,2.4-1.8,3.9-1.7c0.6,0,0.5-0.1,0.6-0.6c0.1-0.4,0.2-0.8,0.3-1.1
			c0.2-0.8,0.6-1.5,1-2.2c0.8-1.3,1.9-2.3,3.2-3c0.5-0.3,1.2-0.8,1.6-0.2c0.3,0.5-0.2,2-0.3,2.7c-0.5,3.6-0.4,7.2-0.1,10.8
			c0.2,1.9,0.3,3.7,0.3,5.6c0,1.9-0.1,4.2-1.4,5.8c2.4-1.6,1.9-5.7,1.8-8.2c-0.2-3.4-0.6-6.6-0.2-10c0.4-2.8-0.1-5.9,1.6-8.3
			c0.8-1.1,1.9-2,3.1-2.6C169.5,33.4,172.4,32.2,172.8,33.1z M153.5,35.1c0.3,0.1,0.9,0.4,1.2,0.4c0.3,0,1-0.6,1.3-0.8
			c0.8-0.5,1.7-1,2.6-1.5c-0.2-0.1-0.5-0.2-0.7-0.3c-0.2-0.2-0.5-0.2-0.7,0.1c-0.4,0.1-0.8,0.5-1.2,0.7
			C155.1,34.1,154.3,34.6,153.5,35.1z M153.8,53c0.1-0.1,0.1,0,0.1-0.2C153.9,52.9,153.9,53,153.8,53z M156.2,50.9
			c-0.9,0.4-1.6,1-2.2,1.8C154.8,52.1,155.5,51.5,156.2,50.9z M154.7,47.8c0.5-0.5,1-1,1.5-1.4c-0.9,0.2-1.6,0.8-2.1,1.5
			C154.3,47.9,154.5,47.8,154.7,47.8z M157.4,63.7c-0.8,0.7-1.9,1.2-3,1.3c0.2,0.1,0.8,0.4,1,0.3c0.2,0,0.7-0.5,0.8-0.7
			C156.5,64.5,157.4,64,157.4,63.7z M156.8,52.1c1-0.9,2-1.7,3.1-2.5c0.5-0.4,1-0.7,1.5-1c0.2-0.1,0.8-0.4,0.9-0.6
			c0.1-0.2,0-0.8,0-1c-0.6,0.6-1.5,1.1-2.2,1.6c-0.3,0.2-0.6,0.5-0.9,0.7c-0.2,0.2-0.4,0.3-0.6,0.5c0,0.2,0,0.4,0,0.5
			c-0.2,0.5-0.9,0.2-1.3,0.5c-0.8,0.5-1.5,1.2-2.2,1.8C155.5,52.4,156.2,52.2,156.8,52.1z M155.2,35.8c0.2,0.1,0.4,0.2,0.6,0.4
			c0.2,0.3,0.4,0.3,0.6,0c0.4-0.1,0.8-0.6,1.2-0.9c0.8-0.6,1.6-1.1,2.4-1.6c-0.5-0.2-0.6-0.3-1.1-0.1c-0.4,0.1-0.8,0.5-1.2,0.7
			C156.9,34.7,156,35.2,155.2,35.8z M155.6,47.6c0.6-0.1,1,0,1.4-0.4c0.4-0.3,0.8-0.6,1.2-1c-0.3,0-0.8,0-1.1,0.1
			C156.6,46.5,156,47.2,155.6,47.6z M157.4,66c0.6,0.1,2.1-1.5,2.5-1.9c-0.3-0.1-0.6-0.2-0.9-0.3c-0.5-0.2-0.6-0.2-1,0.1
			c-0.6,0.5-1.3,1-1.9,1.6c0.3,0.1,0.3,0.3,0.5,0.4c0.2,0.1,0.3,0.1,0.5,0.2C157.2,66,157.3,65.9,157.4,66z M156.5,36.6
			c0.2,0.1,0.4,0.3,0.5,0.3c0.4,0.1,0.4,0.1,0.7-0.2c0.4-0.3,0.9-0.6,1.3-0.9c0.9-0.6,1.8-1.2,2.7-1.8c-0.3,0-0.9-0.3-1.2-0.2
			c-0.4,0.1-0.9,0.5-1.1,0.7C158.5,35.2,157.5,35.9,156.5,36.6z M157.4,47.6c0.6,0.1,0.8-0.1,1.2-0.5c0.4-0.3,0.8-0.6,1.3-0.9
			c0.4-0.3,2-1.6,2.4-1.3c0-0.4,0-0.7,0-1.1C160.6,45.1,158.9,46.3,157.4,47.6z M157.6,52.1c0.7,0.1,0.7,0.3,1.3-0.1
			c0.5-0.4,1-0.8,1.5-1.2c0.5-0.3,0.9-0.7,1.4-1c0.1-0.1,0.6-0.3,0.6-0.4c0.1-0.1,0-0.7,0-0.8C160.6,49.7,159,50.9,157.6,52.1z
			 M157.8,63.3c1-0.7,2-1.4,2.9-2.2c0.5-0.4,0.9-0.7,1.4-1.1c0.5-0.4,0.6-0.4,0.6-1.1c-0.1,0.3-1,0.7-1.2,0.9
			c-0.5,0.4-1.1,0.7-1.6,1.1c-0.5,0.3-0.9,0.6-1.2,1.1C158.4,62.5,158.2,62.9,157.8,63.3z M161.3,36.1c1-0.7,2-1.4,3-2.1
			c-0.5,0.1-1.1-0.1-1.6,0.1c-0.5,0.1-1.2,0.7-1.6,1c-1.1,0.7-2.1,1.4-3.1,2.2C159.1,37.4,160.4,36.8,161.3,36.1z M168.7,59.4
			c0.1-0.6,0.2-1.3,0.3-1.9c-0.6,0.5-1.1,1-1.7,1.5c-0.5,0.5-1.3,1-1.8,1.5c-0.4,0.5-0.6,1.6-1.1,2.2c-0.5,0.6-1.1,1.2-1.8,1.5
			c-0.4,0.2-0.8,0.3-1.2,0.3c-0.6,0-0.7-0.1-1.2,0.2c-0.8,0.5-1.5,1.2-2.2,1.8c0.4,0.1,1.1,0.3,1.5,0.2c0.5-0.1,1-0.6,1.4-0.9
			c0.9-0.7,1.8-1.4,2.7-2.1c0.8-0.7,1.7-1.4,2.5-2C166.4,61.2,168.3,59.2,168.7,59.4z M158.5,48.1c0.3,0.3,0.1,0.7,0,1
			c0.4-0.3,3.3-2.7,3.7-2.4c0-0.5,0-1,0-1.5C161.6,45.8,158.3,47.3,158.5,48.1z M158.7,52.8c0.1,0.3-0.1,0.3,0,0.5
			c0,0.4,0.1,0.7,0.2,1.1c0.7-0.7,1.5-1.4,2.3-2c0.3-0.3,0.9-0.5,1.2-0.8c0.3-0.3,0.1-1,0-1.5C161.1,50.9,159.9,51.8,158.7,52.8z
			 M158.9,54.9c0,0.4,0.1,0.7,0.1,1.1c0.9-0.7,1.8-1.4,2.7-2.1c0.2-0.2,0.8-0.5,0.9-0.7c0.1-0.3-0.1-0.9-0.1-1.2
			c-0.7,0.5-1.3,1-1.9,1.5C160.2,53.8,159.3,54.9,158.9,54.9z M162.7,58.9c0-0.5,0.1-1.1,0.1-1.6c-0.8,0.6-1.5,1.2-2.3,1.8
			c-0.4,0.3-0.7,0.6-1,0.9c-0.5,0.4-0.6,0.5-0.6,1.1c0.7-0.5,1.4-0.9,2-1.4C161.1,59.5,162.6,58.3,162.7,58.9z M159.2,63
			c-0.1,0.1-0.2,0.2-0.3,0.3c1.8-0.2,3.2-1,3.6-2.8C161.4,61.2,160.2,62.1,159.2,63z M158.9,59.8c1-0.9,2.1-1.7,3.2-2.5
			c0.2-0.1,0.7-0.4,0.8-0.6c0.1-0.2,0-0.7,0-0.9c0-0.7-0.1-1.3-0.1-2c-0.8,0.7-1.6,1.3-2.4,1.9c-0.3,0.2-1.1,0.6-1.2,0.9
			c-0.1,0.3,0,0.9,0,1.2c0.7-0.6,1.5-1.2,2.2-1.8c0.1-0.1,0.7-0.6,0.9-0.6c0.7-0.1,0.2,0.4,0,0.6c-0.6,0.6-1.4,1-2,1.5
			c-0.3,0.2-0.9,0.6-1.1,0.9C158.8,58.8,158.9,59.4,158.9,59.8z M159.1,44.8c-0.1,0.3-0.1,0.6-0.1,0.9c0.7-0.5,1.4-1.1,2.1-1.6
			c0.3-0.2,0.7-0.4,0.9-0.7c0.4-0.4,0.3-0.7,0.4-1.3C161.2,42.9,160.1,43.8,159.1,44.8z M159.9,42.3c-0.3,0.5-0.5,1.1-0.6,1.6
			c0.7-0.6,1.4-1.2,2.1-1.7c0.3-0.2,0.8-0.5,1-0.7c0.2-0.3,0.2-0.7,0.3-1.1C161.7,41,160.8,41.7,159.9,42.3z M168.4,60.5
			c0-0.2,0.1-0.3,0.1-0.5c-2.6,2.3-5.3,4.5-8,6.6c1,0,1.8-0.1,2.5-0.8c0.7-0.6,1.5-1.3,2.2-1.9c0.2-0.2,1.6-1.6,1.9-1.4
			c0.4,0.2,0,0.5-0.2,0.6c-1,1.1-2.3,2-3.4,3C166.1,65.1,167.9,63.1,168.4,60.5z M162.8,39.3c-0.8,0.5-1.5,1.1-2.1,1.8
			C161.4,40.6,162.6,40.1,162.8,39.3z M165.2,46.8c0,0.6,0,1.2,0,1.9c0.9-0.9,1.7-1.7,2.6-2.5c0.2-0.2,0.4-0.3,0.6-0.5
			c0.1-0.1,0.7-0.4,0.7-0.4c0.2-0.3,0-1.2,0-1.6c-0.7,0.4-1.5,0.9-2.1,1.5C166.8,45.4,165.5,46.9,165.2,46.8z M165.5,52.8
			c0.6-0.5,1.2-1,1.8-1.5c0.3-0.3,0.7-0.5,1-0.8c0.2-0.2,0.8-0.4,0.9-0.7c0.2-0.5,0-1.5,0-2.1c0-0.7,0-1.4,0-2
			c-0.9,0.8-1.8,1.6-2.7,2.4c-0.3,0.3-1.1,0.8-1.2,1.2c-0.1,0.4,0.1,1.3,0.1,1.7c0.7-0.7,1.4-1.4,2.2-2.1c0.2-0.2,0.8-0.9,1.1-1
			c0.5-0.1,0.4,0.2,0.2,0.5c-0.4,0.7-1.5,1.3-2.1,1.9c-0.3,0.3-0.8,0.7-1.1,1.1C165.4,51.9,165.5,52.2,165.5,52.8z M169.2,43
			c0-0.6,0.1-1.3,0.2-1.9c-0.8,0.8-1.8,1.4-2.7,2.2c-0.4,0.4-1,0.8-1.2,1.3c-0.2,0.4-0.2,1.2-0.2,1.6
			C166.4,44.9,167.7,43.8,169.2,43z M169,56.8c0-0.4,0.1-0.8,0.1-1.2c-0.7,0.7-1.5,1.3-2.1,2c-0.3,0.4-0.7,0.7-1,1.1
			c-0.4,0.4-0.4,0.5-0.5,1.1c0.6-0.5,1.2-1.1,1.8-1.6C167.6,57.9,168.6,56.8,169,56.8z M169.8,38.1c0.2-0.9,0.5-1.8,0.9-2.6
			c-1,0.9-2.1,1.8-3.1,2.7c-0.5,0.4-1,0.9-1.5,1.3c-0.6,0.5-0.5,0.9-0.5,1.7c0.8-0.7,1.7-1.4,2.5-2.1c0.3-0.2,0.8-0.9,1.2-0.9
			c0.7,0-0.2,0.7-0.3,0.8c-0.8,0.6-1.5,1.2-2.3,1.9c-0.4,0.3-0.9,0.6-1.1,1.1c-0.1,0.4-0.1,1.1-0.1,1.5c0.3-0.3,3.5-3.3,3.8-2.9
			C169.5,39.8,169.6,39,169.8,38.1z M169.2,50.4c-0.9,0.7-1.8,1.4-2.7,2.2c-0.3,0.2-0.8,0.6-0.9,0.9c-0.2,0.4,0.1,1.2,0.1,1.6
			c0.7-0.8,1.5-1.5,2.3-2.2c0.3-0.3,0.8-0.6,1.1-0.9c0.1,0,0.2,0,0.2,0c0-0.2,0-0.4,0-0.6C169.2,51.1,169.2,50.8,169.2,50.4z
			 M169.2,55c0-0.3,0-0.5,0-0.8c-0.4,0.3-3.4,3.2-3.6,3c0,0.4,0,0.8,0,1.2c0.6-0.6,1.2-1.3,1.8-1.9C167.7,56.2,168.6,55,169.2,55z
			 M169.2,53.6c0-0.4,0-0.7,0-1.1c-0.8,0.6-1.5,1.3-2.2,2c-0.3,0.3-0.7,0.7-1,1c-0.2,0.2-0.3,0.1-0.4,0.4c-0.1,0.2,0,0.7,0,0.9
			C166.7,55.6,167.9,54.5,169.2,53.6z M171,35.1c0.2-0.3,0.4-0.7,0.7-1c-2.7,0.4-5.5,2.3-5.9,5.1c0.9-0.8,1.8-1.6,2.7-2.3
			C168.8,36.6,170.7,34.6,171,35.1z"/>
		<path d="M179.5,53.7c0,1.8,0.1,3.6,0.1,5.3c0,0.9-0.3,3.1,0.5,3.8c0.6,0.6,1.6,0.3,1.3,1.5c-0.2,0.7-0.8,0.9-1.5,1
			c-1.2,0.2-2.4-0.5-3.5-0.7c-0.7-0.1-1.4-0.2-2.1,0c-0.6,0.2-1.1,0.2-0.9-0.7c0.1-0.7,0.6-1.3,0.9-1.9c0.3-0.6,0.3-1.3,0.4-2
			c0.1-2.2,0.1-4.4,0.1-6.5c0-1.3,0.1-2.8-0.4-4c-0.5-1.1-2.6-1.8-2.1-3.2c0.4-1,2.5,0.1,3.3,0.1c0.7,0,1.5-0.1,2.2-0.2
			c0.5-0.1,1.6-0.6,2-0.1c0.4,0.5-0.2,1.3-0.3,1.8c0,0.3-0.1,0.7,0,1.1c0.1,0.5,0.1,0.5,0.5,0.2c0.7-0.5,1.2-1.3,1.8-1.9
			c0.6-0.6,1.3-1.2,2-1.6c2.8-1.5,5.3,2.2,6,4.5c1.2,3.7,0.2,8.1-1.3,11.6c-0.7,1.7-1.8,3.3-3.1,4.7c-0.3,0.3-2.2,2.9-2.9,2.4
			c1.6-4.2,3.1-8.7,2.3-13.2c-0.2-1.2-0.5-2.4-0.9-3.5c-0.2-0.7-0.6-1.6-1.3-2C180.9,49.2,179.5,52.3,179.5,53.7z"/>
		<path d="M194.1,38.3c1.3-0.9,2.9-0.8,4.4-0.5c1.6,0.3,3.2,0.4,4.8,0.1c0.4-0.1,1.2-0.4,1.5-0.2c0.4,0.3,0.2,1.6,0.2,2
			c-0.2,1.3-1,2.7-2.3,3.4c-1.5,0.7-3.1,0.2-4.6-0.1c-1.2-0.3-2.8-0.1-2.6,1.6c0.5,3.4,5.4,1.7,7.4,1.5c0,0.6,0.3,1,0,1.6
			c-0.2,0.4-0.7,0.7-1.1,0.8c-0.8,0.2-2.4-0.3-3,0.2c-0.5,0.4-0.3,2-0.3,2.6c0,0.8,0,1.5,0,2.3c0,2.1,0.1,4.2,0.1,6.3
			c0,0.8,0,1.7,0.6,2.4c0.3,0.4,0.7,0.6,1.1,0.9c0.4,0.2,1.5,0.4,1.5,1c0.1,0.9-1.4,1.2-2.1,1.2c-1.1,0-2.1-0.5-3.2-0.8
			c-0.9-0.3-1.8-0.4-2.7-0.3c-0.5,0.1-2.6,1.2-2.2-0.3c0.1-0.3,0.6-0.7,0.7-0.9c0.4-0.4,0.8-0.8,1-1.4c0.3-0.7,0.3-1.4,0.3-2.2
			c0-2,0-4,0-6c0-1.2,0-2.3,0-3.5c0-0.3,0.2-1.3,0-1.6c-0.3-0.4-1.9,0.4-2.1-0.3c-0.2-0.4,0.4-1.1,0.7-1.3c0.4-0.3,1.1-0.3,1.6-0.2
			C193.6,44.1,191.2,40.2,194.1,38.3z"/>
		<path d="M204.7,56c-0.5-3.3,0.2-6.3,2.7-8.5c1.3-1.1,2.8-1.7,4.5-2c0.6-0.1,1.9-0.4,2.4-0.1c0.7,0.3,0.1,0.8-0.3,1.2
			c2.5-1.3,6.4,0.1,8.3,2c2.1,2,2.1,5.5,1.7,8.1c-0.5,2.9-2.2,6-4.9,7.4c-2.5,1.2-5.7,1.2-8.3,0.2C207.1,62.7,205.2,59.8,204.7,56z
			 M217.3,58.5c1.1-1.4,1.2-4.2,0.1-5.7c-0.7-0.8-1.8-1.4-2.8-0.7c-0.7,0.5-0.9,1.6-0.3,2.2c0.3,0.3,0.6,0.1,0.2,0.6
			c-0.3,0.3-1,0.3-1.3,0.3c-1.2,0-2.2-0.6-2.8-1.6c-0.6-1-0.8-2.2-0.5-3.4c0.2-0.7,0.9-2.2,1.8-2.4c-3.4,1.3-4.3,5.8-2.8,8.8
			C210.4,59.7,214.9,61.7,217.3,58.5z"/>
		<path d="M231,59.7c0.1,0.9,0.4,1.6,1.1,2.1c0.3,0.2,0.9,0.2,1.1,0.5c0.4,0.4,0.1,1-0.1,1.4c-1.2,1.9-3.6,0.9-5.4,0.6
			c-0.9-0.1-1.7-0.2-2.5,0c-0.2,0.1-1,0.5-1.2,0.3c-0.2-0.2,0.1-1.1,0.1-1.3c0.3-0.9,0.9-1.2,1.5-1.9c0.6-0.6,0.7-1.4,0.7-2.2
			c0.1-2.4,0.1-4.8,0-7.2c0-0.5-0.1-1-0.3-1.5c-0.4-1-1.1-1.5-1.7-2.3c-0.4-0.5-0.7-1.6,0.1-2c0.4-0.2,0.6,0.2,0.9,0.3
			c0.4,0.2,0.9,0.3,1.4,0.3c1,0,1.9-0.4,2.9-0.6c0.5-0.1,1.8-0.5,2.2,0.1c0.3,0.4-0.1,0.7-0.3,1c-0.3,0.4-0.4,0.9-0.4,1.4
			c-0.1,0.6,0,1.2,0,1.7c1-1.8,2.4-5.4,5.1-4.8c1.6,0.3,1.7,1.9,1.6,3.1c0,0.7,0,1.4-0.1,2.1c-0.1,0.9-0.3,1.5-0.6,2.3
			c-1.4-1.7-4.4-2.9-5.7-0.3c-0.4,0.9-0.4,2-0.4,2.9C230.9,57.1,230.9,58.5,231,59.7z"/>
		<path d="M255.7,63.1c0.6,0.7-0.3,1.6-0.9,1.9c-0.6,0.2-1.2,0.2-1.8,0c-0.9-0.2-1.8-0.4-2.7-0.5c-0.4,0-0.7-0.1-1.1,0
			c-0.3,0.1-0.7,0.3-1,0.3c-0.7-0.2-0.4-0.8-0.1-1.2c0.6-0.7,1.3-1.2,1.5-2.1c0.3-1.6,0.1-3.5,0-5.1c-0.1-1.6-0.1-3.8-1-5.1
			c-0.7-1-2-0.6-2.5,0.3c-0.8,1.6-1,3.6-1,5.3c-0.1,1.6-0.3,4,0.5,5.5c0.3,0.6,1.1,0.6,1.4,1.2c0.4,0.8-0.4,1.4-1.1,1.6
			c-1.4,0.3-2.6-0.4-4-0.6c-0.4-0.1-0.8-0.1-1.2-0.1c-0.4,0-0.7,0.2-1.1,0.2c-0.9,0.1-0.7-0.6-0.3-1.2c0.5-0.8,0.9-1.4,1-2.4
			c0.1-1,0.1-2,0.2-3c0.1-2.8,0.2-5.8-0.3-8.6c-0.1-0.5-0.2-1.1-0.5-1.5c-0.4-0.5-1.8-0.7-1.9-1.4c-0.4-1.4,3-0.3,3.6-0.3
			c1.1,0,1.9-0.3,3-0.5c0.3-0.1,0.7-0.2,1,0.1c0.4,0.4,0.1,0.8,0,1.2c-0.1,0.4-0.6,2-0.1,2.3c0.3,0.1,0.9-0.7,1.1-0.9
			c1.1-1.1,2.4-3.2,4.2-3.1c2,0.1,2.6,2.6,3.4,4c1.5-1.9,3.5-5.3,6.3-3.5c2.6,1.7,3.5,5,3.5,7.9c-0.1,3.2-0.7,6.7-2.3,9.5
			c-0.8,1.4-1.9,2.7-3,3.8c-0.3,0.3-1.8,2-2.4,1.6c1.2-2.9,2.3-5.9,2.7-9c0.2-1.7,0.2-3.5,0-5.2c-0.1-1.2-0.1-3.2-1-4.2
			c-0.9-1-1.9,0.2-2.4,0.9c-0.8,1.1-0.8,2.2-0.9,3.5c0,1.7,0,3.3,0,5c0,0.7-0.1,1.5,0.2,2.2C254.7,62.8,255.1,62.9,255.7,63.1z"/>
		<path d="M271.2,50.8c0,0.7-1.4,1.1-1.9,1.2c-0.9,0.2-2,0.2-2.9-0.3c-1.4-0.7-3.2-3.1-2.3-4.8c0.2-0.4,0.2-0.4,0.6-0.4
			c0.5,0,0.9,0,1.3,0c1-0.1,2-0.3,3-0.5c2-0.3,4.2-0.6,6.2-0.1c3.9,1,4.2,4.9,4.2,8.3c0,0.8,0,1.6,0,2.4c0,1.4-0.2,3,0.1,4.4
			c0.3,0.9,1.6,0.8,1.8,1.5c0.2,0.8-1.3,1.6-1.8,1.9c-2,1-4.7,0.6-5.6-1.7c-0.7,1-2.7,1.7-3.8,2c-1.4,0.3-3,0.1-4.2-0.7
			c-2-1.4-2.3-5.2-0.9-7.1c2-2.6,5.3-3.3,7.7-5.4c0.9-0.8,1-2.5-0.4-2.8c-0.6-0.2-1-0.1-1.3,0.4c-0.1,0.3-0.2,0.7-0.2,1
			C270.9,50.3,271.2,50.5,271.2,50.8z M271.6,60.8c2.8-0.4,2.2-4.4,2.2-6.3c-0.6,0.3-1.1,0.8-1.7,1.2c-0.6,0.4-1.2,0.9-1.7,1.5
			C269.5,58.4,269.4,61.1,271.6,60.8z"/>
		<path d="M289.9,40c-1,0.5-1,1.9-1,2.9c-0.1,0.7-0.4,2.9,0,3.4c0.7,0.6,2.4,0.6,3.1,0.2c0.5-0.3,0.9-0.9,1.2-1.3
			c0.3-0.5,0.4-0.9,0.9-0.6c1.9,1.3,1.8,4.2,0.5,5.9c-1.4,1.8-4.2,1.7-5.9,0.3c0,2.5,0,4.9,0,7.4c0,1.3-0.1,5.5,2.4,4.3
			c1-0.5,0.8-2.2,0.5-3.1c-0.3-0.9-2.1-1.9-0.6-2.6c2.3-1.1,5.3,0.3,5.9,2.8c0.5,2.5-1.9,4.4-4,5.2c-2.2,0.8-5.4,0.6-7.5-0.7
			c-1.1-0.7-1.8-1.6-2.4-2.8c-0.2-0.4-0.5-0.9-0.4-1.3c0.1-0.5,0.5-0.5,0.8-0.9c0.5-0.7,0.4-2.1,0.4-2.9c0-0.9,0-1.9,0-2.8
			c0-0.6,0-1.2,0-1.8c0-0.3,0-0.7,0-1c0-0.6,0.2-1.5-0.3-1.9c-0.7-0.5-1.4-0.3-2,0c-0.7,0.3-0.9-0.1-0.9-0.7c0-1.7,1.6-2.7,3.2-2.1
			c0-1.8-0.1-3.7-1.2-5.1c-0.4-0.5-1.5-1.3-1-2.1c0.5-0.8,1.4,0.3,2.2,0.4c1.9,0.3,3.5-1,5.3-1.2c0.7-0.1,1.6,0,2.2,0.5
			C292.5,39.4,290.6,39.6,289.9,40z"/>
		<path d="M303.4,51.7c-0.1,2.4-0.2,4.8,0,7.1c0.1,0.8,0.1,1.8,0.5,2.6c0.4,0.8,1.6,0.5,1.9,1.2c0.4,0.9-0.8,1.9-1.6,2.1
			c-1,0.3-2.2-0.1-3.2-0.2c-0.9-0.1-1.8-0.3-2.7-0.1c-0.3,0.1-0.8,0.3-1.1,0.2c-0.4-0.2-0.1-0.7,0-1c0.4-1,1.1-1.9,1.3-3.1
			c0.2-1,0.3-2,0.3-2.9c0.1-2,0.1-4.1-0.2-6.1c-0.2-1-0.6-1.8-1.2-2.6c-0.5-0.5-1.6-1.4-1.4-2.2c0.2-1,1.4-0.2,2,0
			c0.9,0.3,1.8,0.2,2.7-0.1c1.1-0.3,2.1-0.9,3.2-0.9c0.5,0,1.1,0,1.5,0.3c0.4,0.3,0.9,1.1,0.7,1.6c-0.2,0.4-0.7,0.3-1.1,0.3
			c-0.5,0.1-0.9,0.3-1.1,0.7C303.3,49.5,303.4,50.8,303.4,51.7z M303.2,38.4c1.1,1.2,1,3.2-0.2,4.3c-1.1,1-3.1,0.9-4.2-0.2
			c-1.1-1.2-1-3.1,0.1-4.2C300,37.3,302.1,37.3,303.2,38.4z"/>
		<path d="M314.1,51.6c0.8,0.5,2.3-0.5,2.9-0.9c0.8-0.6,1.1-1.5,0.9-2.5c-0.1-0.7-1.3-1.4-0.8-2c0.6-0.8,2.2-0.8,3.1-0.6
			c1.9,0.4,3.4,2.5,2.4,4.4c-0.5,1-1.6,1.6-2.6,2c-0.6,0.3-1.5,0.8-2.2,0.6c1.8-0.2,3.8,0.6,5.1,1.9c1.3,1.3,1.4,3.2,1.6,4.9
			c0.1,1.4-0.1,3.1-1.7,3.4c-0.6,0.1-0.9,0-1,0.6c-0.2,0.9,0.1,2,1,2.4c0-1.8,2.4-2.5,3.6-1.4c1.4,1.3,0.5,3.6-1,4.3
			c-1.6,0.8-3.6,0.3-5-0.8c-1.4-1.1-2-2.6-2.1-4.4c0-1.5,0.3-3,0.2-4.6c-0.1-1.5-0.5-4.1-2.4-4.4c-1.9-0.4-2.2,2.2-2.3,3.5
			c0,0.7,0,1.5,0,2.3c0.2,1.3,0.9,1.3,1.8,2.1c0.6,0.4,0.4,1.4-0.1,1.9c-0.5,0.4-1.5,0.4-2.1,0.4c-0.8,0-1.6-0.2-2.4-0.3
			c-0.9-0.1-1.8,0-2.7,0.1c-0.3,0-0.9,0.1-0.9-0.3c0-0.2,0.6-0.8,0.7-1c0.6-0.9,0.9-1.7,0.9-2.7c0.1-2.1,0-4.1,0-6.2
			c0-3.2,0.2-6.5-0.1-9.8c-0.1-0.9-0.3-1.7-0.7-2.5c-0.4-0.8-1.2-1.5-1.5-2.4c-0.2-0.4-0.2-1.4,0.4-1.6c0.3-0.1,0.8,0.2,1.1,0.3
			c0.4,0.2,0.8,0.3,1.3,0.3c1.8,0.1,3.3-1.3,5.1-1.2c0.9,0,1.8,0.5,1.9,1.5c0.1,0.7-0.3,0.6-0.8,0.6c-0.5,0.1-0.9,0.3-1.2,0.7
			c-1.1,1.5-0.8,4.3-0.8,6c0,1.1,0,2.2,0.1,3.3C313.8,50,313.7,51.2,314.1,51.6z"/>
		<path d="M333,50.8c0,0.7-1.4,1.1-1.9,1.2c-0.9,0.2-2,0.2-2.9-0.3c-1.4-0.7-3.2-3.1-2.3-4.8c0.2-0.4,0.2-0.4,0.6-0.4
			c0.5,0,0.9,0,1.3,0c1-0.1,2-0.3,3-0.5c2-0.3,4.2-0.6,6.2-0.1c3.9,1,4.2,4.9,4.2,8.3c0,0.8,0,1.6,0,2.4c0,1.4-0.2,3,0.1,4.4
			c0.3,0.9,1.6,0.8,1.8,1.5c0.2,0.8-1.3,1.6-1.8,1.9c-2,1-4.7,0.6-5.6-1.7c-0.7,1-2.7,1.7-3.8,2c-1.4,0.3-3,0.1-4.2-0.7
			c-2-1.4-2.3-5.2-0.9-7.1c2-2.6,5.3-3.3,7.7-5.4c0.9-0.8,1-2.5-0.4-2.8c-0.6-0.2-1-0.1-1.3,0.4c-0.1,0.3-0.2,0.7-0.2,1
			C332.7,50.3,333,50.5,333,50.8z M333.4,60.8c2.8-0.4,2.2-4.4,2.2-6.3c-0.6,0.3-1.1,0.8-1.7,1.2c-0.6,0.4-1.2,0.9-1.7,1.5
			C331.3,58.4,331.2,61.1,333.4,60.8z"/>
	</g>
	<g>
	</g>
	<g>
	</g>
	<g>
	</g>
	<g>
	</g>
	<g>
	</g>
	<g>
	</g>
	<g>
	</g>
	<g>
	</g>
	<g>
	</g>
	<g>
	</g>
	<g>
	</g>
	<g>
	</g>
	<g>
	</g>
	<g>
	</g>
	<g>
	</g>
</g>
</svg>
