<?xml version="1.0" encoding="utf-8"?>
<!-- Generator: Adobe Illustrator 22.0.1, SVG Export Plug-In . SVG Version: 6.00 Build 0)  -->
<svg version="1.1" id="Layer_1" xmlns="http://www.w3.org/2000/svg" xmlns:xlink="http://www.w3.org/1999/xlink" x="0px" y="0px"
	 viewBox="0 0 350 100" style="enable-background:new 0 0 350 100;" xml:space="preserve">
<g id="Layer_1_1_">
</g>
<g id="Layer_2_1_">
	<g>
		<path d="M22.6,30.6c0.5,0.1,0.8,0.8,1,1.1s0.9,0.9,0.9,1.2c0.3-0.2,1.4-0.9,1.8-0.6c0.7,0.5-1.1,1.1-1.2,1.1
			c0.1,0.3,0.4,0.7,0.8,0.7c0.1,0,0.3-0.3,0.5-0.3c0.1,0,0.2,0.4,0.4,0.5c0.5,0.3,1.3,0,1.9-0.1c0.8-0.1,2-0.8,2.4-1.7
			c0.1-0.4,0.1-1,0.6-1.1c0.7-0.2,0.8,0.5,0.7,1c-0.3,1.8-2.5,2.9-3.8,3.8c-1,0.8-2.1,1.7-3.1,2.5c-0.4,0.3-2,0.9-2.1,1.4
			c0.6,0.1,1.5-0.7,2-1.1c0.8-0.5,1.5-1.1,2.4-1.7c0.8-0.6,1.7-1.2,2.5-1.9c0.2-0.2,1.2-0.9,1-0.1c-0.1,0.5-1.8,1.4-2.2,1.8
			c-0.6,0.5-1.2,0.9-1.9,1.4c-0.5,0.3-0.9,0.6-1.4,0.9C25.6,39.8,25,40,25,40.2c0.5,0.1,1.4-0.8,1.9-1c0.6-0.4,1.2-0.8,1.9-1.2
			c0.4-0.2,0.7-0.6,1.1-0.8c0.1-0.1,0.2-0.1,0.3-0.2c0.1,0.1,0.3,0.1,0.4,0.1c0.5-0.3,1.1-1.4,1.4-2c0.3-0.6,0.6-1.2,0.9-1.9
			c0.1-0.4,0.2-1.4,0.5-1.7c0.7-0.5,1.3,0.5,0.9,1.1c0.7,0,0.5,0.5,0.3,1c-0.3,0.7-0.5,1.3-0.8,2.1c-0.5,1-1,2-1.8,2.9
			c-0.8,1-1.8,2-3,2.6c-0.6,0.3-0.6,0.2-0.6,1c0,0.7,0.1,1.4,0.1,2.2c0.2,4.5-0.1,9.1,0.1,13.5c0,0.5-0.1,0.6,0.3,0.6
			c0.3,0,0.9-0.3,1.2-0.5c0.5-0.2,1-0.5,1.4-0.8c0.2-0.1,0.3-0.2,0.5-0.3c0.2-0.1,0.4-0.4,0.6-0.5c0.4-0.2,0.9-0.1,1,0.5
			c0,0.3-0.2,0.5-0.4,0.8c-0.5,0.6-1.1,1.1-1.7,1.8c-0.6,0.8-1.4,1.5-2.3,2.3c-0.1,0.1-0.3,0.2-0.4,0.4c-0.1,0.1,0,0.2-0.1,0.3
			c-0.1,0.1-0.1,0.3-0.3,0.5c-0.3,0.4-0.7,0.7-1,1c-1.8,1.3-3.9,2.1-6.1,2.4c-2.7,0.4-5.2,0.4-7.6-0.7c-1.3-0.6-2.5-1.3-3.5-2.4
			c-1.1-0.7-2.6-2.1-2.6-3.3c-2,1-3.7,3.1-3.6,5.4c0.1,2.5,2,3.9,4,4.8c1.4,0.6,2.8,0.8,4.2,0.9c0.7,0.1,1.7,0.2,2.4,0
			c0.6-0.1,1.9-1.5,0.7-1.9c-0.4-0.1-1.3,0.5-1.7,0.2c-0.9,0-1.8-0.1-2.3-1.1c-0.3-0.6-0.3-1.4,0.4-1.9c0.6-0.4,1.8-0.1,2.4,0.1
			c0.9,0.3,1.7,1,2.3,1.9c0.5,0.8,0.7,1.3,0.4,2.3c-0.2,0.9-1,2.6-2.2,2.9c-0.6,0.1-1.4,0-2.1,0c-1.2-0.1-2.5-0.2-3.7-0.6
			c-1-0.3-2.2-0.7-3.2-1.1c-0.6-0.2-1.5-0.5-2.1-1.1c-1.1-1.3-1.8-3.5-1.4-5.2c0.4-2.4,1.2-4.2,3.2-5.8c0.6-0.5,1.5-0.9,2.2-1.4
			c0.3-0.3,0.3,0.1,0.1-0.5c-0.3-0.6-0.7-1.2-0.9-2c-1.8-4.2-1.1-8.7,0.7-12.8c-2.1,1.8-2.1,5.4-2.1,7.8c0,1.7,0,3.5,0.6,5.2
			c0.2,0.5,0.4,1,0.8,1.4c0.2,0.2,0.6,0.6,0.3,0.9c-0.7,0.8-2.1-3.1-2.2-3.6C5,53.7,5,52.3,5,51.1c0-2.8,0.1-6.3,2.3-8.4
			c1-0.9,2.1-1.8,3-2.8c0.2-0.2,0.4-0.5,0.7-0.6c0.1,0,0.1-0.1,0.2-0.1c0.1,0,0.2,0,0.3,0.1c0.1-0.1,0.1-0.2,0.2-0.2
			c0.7-0.4,1.4-0.7,1.4,0.4c1.3-0.6,2.3-2,3.3-2.9c1-0.9,2-1.9,3-2.8c0.6-0.6,1.3-1.2,2-2C21.7,31.6,22.2,30.6,22.6,30.6z M3.2,67.3
			c-0.1,1,0.7,2.7,1.5,3.3c0-0.3,0.4-0.4,0.4-0.6c0-0.1-0.9-0.8-1-0.9c-0.3-0.3-0.5-0.6-0.7-1C3.4,67.8,3.4,67.3,3.2,67.3z
			 M5.7,70.5c0,0.1-0.4,0.4-0.4,0.4C5.7,71.3,6.6,70.5,5.7,70.5z M6.7,71c0,0.3-0.4,0.2-0.3,0.3c0,0.3,0.5,0.1,0.6,0.1
			C7.8,71.3,7.1,71.1,6.7,71z M7.5,48.2c0,0.4-0.1,0.8-0.2,1.1c0.6-0.4,1.2-0.8,1.9-1.2c0.6-0.4,0.4-0.7,0.4-1.4
			C8.9,47,8.2,47.7,7.5,48.2z M7.2,50c0,0.5,0,1.1,0.1,1.7c0.5-0.2,0.9-0.6,1.3-0.9C9,50.6,9.8,50,9.8,49.8c0.1-0.2-0.3-1-0.3-1.2
			C8.8,49.1,8.1,49.6,7.2,50z M7.5,52.4c0.1,0.3,0.2,0.7,0.2,1c0.8-0.5,1.7-1.1,2.4-1.8c0.7-0.6,0.2-0.4,0.2-1.2
			c-0.6,0.5-1.2,1-1.9,1.4C8.1,52.1,7.8,52.4,7.5,52.4z M7.7,47.2c0.5-0.4,1.1-0.8,1.7-1.3c0.3-0.4,0.3-0.6,0.4-1.1
			C8.9,45,7.7,46.2,7.7,47.2z M7.9,54.2c0,0.2,0.1,0.8,0.3,0.9c0.2,0,0.6-0.5,0.7-0.6c0.4-0.3,0.8-0.7,1.2-1
			c0.2-0.2,0.4-0.4,0.6-0.6c0.4-0.4,0.2-0.3,0.2-0.8c-0.7,0.2-1.3,1-2,1.5C8.7,53.7,8.2,54.2,7.9,54.2z M8,71.7c0.1,0,0,0.1,0.2,0.1
			v-0.1C8.1,71.7,8,71.7,8,71.7z M8.3,55.7c0.3,0.5,0.2,0.5,0.6,0.2c0.7-0.5,1.3-1.1,2.1-1.7c0.2-0.2,0.9-0.5,0.8-0.8
			c-0.1-0.9-0.9,0.1-1.1,0.3C9.9,54.5,9.1,55.1,8.3,55.7z M8.4,59.7c0.1,0,0.2,0.3,0.2,0.4c0.1,0.3,0.2,0.6,0.5,0.9
			c0.4,0.6,0.9,1.1,1.4,1.7c0.9,0.9,1.9,1.7,3.1,2.1c0-0.2,0.1-0.3,0.2-0.5c-0.9,0-2.4-1.8-2.8-2.4c-0.3-0.4-0.5-0.8-0.8-1.2
			c-0.3-0.3-0.5-0.8-0.9-1.1c-0.3-0.2-0.2-0.4-0.6-0.1C8.6,59.5,8.4,59.6,8.4,59.7z M8.5,44.8c1.2-0.8,1.4-1.4,1.9-2.8
			C9.4,42.7,8.9,43.7,8.5,44.8z M8.8,72c0,0.1,0,0.1,0,0.2c0.2,0,0.3-0.2,0.3-0.3C9,72,8.9,72,8.8,72z M8.8,56.8
			c0.2,0.3,0.3,0.7,0.6,0.6c0.3,0,0.8-0.6,1-0.7c0.8-0.6,1.7-1.2,2.5-2c-0.3-0.3-0.5-0.8-0.8-0.8c-0.3,0-0.8,0.7-1.1,0.9
			C10.3,55.6,9.6,56.2,8.8,56.8z M9.6,72.4c0,0.3,0.3,0.2,0.6,0.3C10.1,72,10.1,72.4,9.6,72.4z M9.7,58.1c0.2,0.8,0.5,0.5,1,0.2
			c0.7-0.5,1.3-1,2.1-1.5c0.3-0.2,0.9-0.8,1.2-0.5c0.3,0.3-0.1,0.5-0.2,0.6c-0.6,0.6-1.4,1-2.2,1.5c-0.3,0.2-1.3,0.7-0.9,1.1
			c0.3,0.3,1.1-0.7,1.5-1c0.7-0.6,1.5-1.3,2.4-1.8c-0.3-0.3-0.5-0.6-0.8-0.8c-0.4-0.4-0.3-0.4-0.6-0.3c-0.4,0.1-0.8,0.6-1.1,0.8
			C11.3,57,10.6,57.6,9.7,58.1z M10.9,47.3c0.4,0.1,0,0.4,0,0.5c0,0.4,0.1,0.8,0.2,1.2c0.2-0.2,0.6-0.1,0.6,0.2
			c0,0.5-0.6,0.3-0.1,1.1c0.2,0.2,0.3,0.4,0.4,0.6c0,0.1-0.1,0.3,0.1,0.4c0.1,0.1,0.5-0.2,0.6,0.3c0,0.1-0.1,0.2,0,0.3
			c0,0.1-0.1,0.1-0.1,0.2c0.1,0.1,0.2,0.3,0.3,0.4c0.4,0.6,0.9,1.2,1.4,1.8c0.7,0.8,1.4,1.5,2.3,2.2c0.4-1.1,0.7-2.1,0.5-3.3
			c-0.3-2-2.2-3.3-3.5-4.4c-0.6-0.5-1.1-0.8-1.9-1.2c-0.4-0.2-0.4-0.2-0.4-0.6c0-0.3,0.1-0.7,0.2-1c0.2-1.1,0.3-2.2,0.3-3.4
			C10.9,42.4,10.9,46.7,10.9,47.3z M10.9,72.6c0.1,0.1,0.4,0.2,0.6,0.3c0-0.1,0-0.3,0-0.4C11.3,72.5,11.1,72.6,10.9,72.6z
			 M15.1,57.1c0,0.4-1.3,1.2-1.5,1.4c-0.5,0.4-2.7,1.5-1.9,2.3c0.4,0.3,0,0.3,0.5,0c0.4-0.2,0.7-0.6,1.1-0.9c0.5-0.4,1-0.8,1.5-1.2
			c0.2-0.1,1-0.5,1-0.7c0.1-0.3,0.1,0.1,0-0.2C15.9,57.5,15.2,57.2,15.1,57.1z M12.4,41.6c0.1,0.6,0.1,1.2,0.1,2
			c0,1.1-0.4,2.3-0.4,3.4c1.4,0.3,2.7,2,3.6,2.9c0.8,0.9,1.8,1.7,2,2.9c0.2,0.8,0.1,1.4,0.1,2.3c0.3-0.1,0.4-1.3,0.3-1.8
			c0-0.1-0.2-0.2-0.2-0.4c-0.1-0.2,0.2-0.5,0.2-0.8c0-0.2-0.3-0.1-0.3-0.4c-0.1-0.2,0.1-0.4,0-0.6c-0.1-0.4-0.7-0.9-1-1.1
			c-0.7-0.7-1.4-1.3-2.2-2.1c-0.5-0.5-1.9-1.3-2-2.3c0-0.4,0.3-1.1,0.4-1.5c0.1-0.6,0.2-1.1,0.3-1.8c0.1-0.6,0.1-1.1,0.1-1.8
			C12.9,40.8,12.4,41.2,12.4,41.6z M16.4,58c-0.3,0.8-1,1-1.8,1.5c-0.8,0.6-1.7,1.3-2.4,2.1c0.3,0.3,0.4,0.6,0.8,0.5
			c0.4-0.1,0.9-0.6,1.2-0.8c0.7-0.5,1.4-1,2.2-1.5c0.2-0.1,1.1-0.6,1-0.9C17.7,58.6,16.5,58.1,16.4,58z M12.4,40.3
			c0.2-0.1,0.3-0.2,0.3-0.4C12.6,39.9,12.5,40.2,12.4,40.3z M12.5,72.9c0.4,0.1,1.2,0.1,1.4-0.3C13.7,72.6,12.5,72.4,12.5,72.9z
			 M12.8,67.8c0,0.6,1.1,0.8,1.5,0.6c0.5-0.2-0.3-0.4-0.6-0.5C13.4,67.8,13.1,67.8,12.8,67.8z M18.3,59.1c-1.3,1.1-2.8,2.3-4.2,3.2
			c-0.1,0.1-0.5,0.2-0.5,0.4c0,0.2,0.5,0.5,0.7,0.4c0.1,0,0.4-0.3,0.6-0.4c1.4-1,2.8-2.2,4.2-3.2C18.8,59.5,18.5,59.2,18.3,59.1z
			 M16.2,43.9c-0.6,0.5-1.2,0.8-1.9,1.2c-0.4,0.2-0.5,0.1-0.3,0.5c0.2,0.3,0.7,0.7,0.9,0.9c0.4,0.4,0.9,1,1.4,1.3
			c-0.2-0.4,0.3-0.5,0.6-0.6c0.6-0.2,1.1-0.5,1.8-0.9c0.2-0.1,0.5-0.2,0.5-0.4c-0.1-0.7-0.7-0.1-0.9,0c-0.5,0.3-1.7,1.3-2.3,1.3
			c-0.2,0-0.3-0.1-0.4-0.3c-0.1-0.4,0.3-0.4,0.5-0.5c0.7-0.4,1.4-0.8,2.1-1.4c-0.7-0.6-1.4,0.5-2.2,0.9c-0.2,0.1-1.2,0.6-1-0.1
			c0.1-0.4,1.5-1,1.9-1.2C17.2,44.2,17,43.9,16.2,43.9z M20.9,65.6c-0.9,0-1.9,0-2.8,0c-0.4,0-0.7,0-1.1-0.1
			c-0.5-0.1-0.9-0.2-1.4-0.4c-0.2-0.1-0.5-0.2-0.7-0.2c-0.2,0-0.4,0.2-0.6,0.2c2.2,1.2,4.3,1.1,6.8,0.8c2-0.3,3.8-0.7,5.5-1.9
			c-0.9,0.2-1.9,0.8-2.8,1.1C22.7,65.4,21.8,65.6,20.9,65.6z M14.3,44.4c0.4-0.2,1-0.5,1.3-0.8c0.2-0.3,0.3-0.2-0.1-0.4
			c-0.3-0.1-0.2-0.2-0.5,0c-0.1,0.1-0.3,0.2-0.4,0.3C14.3,43.6,14.3,44.1,14.3,44.4z M14.6,40.5c-0.2,0.6-0.1,1.3-0.2,2.1
			c0.5-0.2,0.3-0.3,0.3-0.7C14.8,41.5,14.8,40.8,14.6,40.5z M14.8,72.6c0,0.2-0.1,0.4-0.3,0.5c0.3,0,0.7-0.2,0.8-0.5
			C15.2,72.6,15,72.6,14.8,72.6z M19.6,59.8c-0.5,0.6-1,1.2-1.8,1.7c-0.3,0.1-0.5,0.2-0.8,0.4c-0.7,0.5-1.4,1.1-2.2,1.7
			c0.1,0,0.4,0.2,0.5,0.2c0.5-0.1,1.3-1,1.8-1.3c1-0.8,2.1-1.7,3-2.6C19.9,59.9,19.7,59.8,19.6,59.8z M15.4,39.5
			c0.2,0.7,2.5-1.3,2.6-1.4c0.9-0.8,1.9-1.5,2.8-2.4c0.5-0.5,1.8-1.9,2.7-1.9c-0.2-0.2-0.8-0.8-0.8-1.2
			C20.2,34.9,17.8,37.1,15.4,39.5z M20.9,60.2c-1.4,1.4-3.1,2.6-4.6,3.9c0.8,0,1.4-0.4,2.2-0.9c1.1-0.8,2.3-1.8,3.4-2.7
			C21.4,60.4,21.1,60.3,20.9,60.2z M16.6,41.6c0,0.4-0.4,0.4,0.1,0.8c0.2,0.1,0.5,0.1,0.6,0.2c0.2,0.1,0.4,0.5,0.6,0.6
			c0.9,0.7,2,1.2,2.9,2.1c0.3,0.3,0.5,0.7,0.8,0.9c0.5,0.5,1,1,1.4,1.5c0.5,0.6,0.9,1.2,0.9,2.2c0.1,2-0.8,3.9-2.4,5.3
			c-1,0.8-2.3,1.5-3.3,2.4c0.8,0.5,1.7,0.9,2.6,1.2c0.5,0.2,1.5,0.5,2.1,0.3c0.3-0.1,0.5-0.7,0.9-0.6c0.5,0.1,0.2,0.5,0,0.7
			c0.5,0,0.9,0.1,1.5,0c0.2,0,1.4,0,1.7-0.2c0.1-0.2-0.1-1.4-0.1-1.7c-0.1-2.8-0.2-5.5-0.1-8.3c0-1.4,0-3,0-4.4
			c0-0.5,0.1-2.5-0.4-2.6c-0.5-0.1-1.7,0.4-2.2,0.5c-0.7,0.2-1.4,0.4-2.2,0.5c-0.5,0.1-5.8-0.1-4.7-1.3
			C17.3,41.9,16.9,41.8,16.6,41.6z M16.5,40.2c0.6,0.2,1.9,0.9,2.6,0.7c0.3-0.1,0.8-0.6,1.1-0.8c0.7-0.4,1.3-0.8,2-1.3
			c1.3-1,2.8-2.1,4.1-3.1c-0.2,0-0.3-0.1-0.5-0.1c-0.4-0.1-0.4-0.1-0.8,0.1c-0.5,0.3-1,0.8-1.4,1.2c-0.8,0.7-1.8,1.3-2.6,2.1
			c-0.6,0.4-2.2,1.8-3,1.5c-0.3-0.1-0.5-0.6-0.1-0.8c0.3-0.1,0.4,0.1,0.5,0.1c0.4,0,0.9-0.4,1.2-0.7c1.9-1.2,3.5-2.7,5.2-4
			c-0.5,0-0.5-0.6-0.8-0.7c-0.1,0-0.3,0.1-0.4,0.2c-0.5,0.3-1,0.7-1.5,1c-0.8,0.6-1.5,1.2-2.4,2c-0.5,0.4-1,0.9-1.5,1.3
			C17.9,39.1,16.5,40,16.5,40.2z M16.6,48.1c0,0.1,0.4,0.4,0.5,0.5c0.4,0.2,0.6,0.1,1.1-0.2c0.7-0.4,1.4-0.9,2.2-1.4
			c-0.1-0.1-0.4-0.5-0.6-0.5c-0.3,0-1,0.6-1.3,0.8C18,47.5,17.3,48.1,16.6,48.1z M22.5,60.6c-1.5,1.3-3,2.7-4.6,3.8
			c0.4,0,1.1,0.1,1.5,0.1c0.5-0.1,1.1-0.8,1.5-1.1c0.5-0.4,0.9-0.8,1.4-1.1c0.2-0.2,1.5-1.1,1.5-1.3C23.9,60.7,22.6,60.6,22.5,60.6z
			 M20.9,47.5c-0.7,0.5-1.4,1-2.2,1.4c-0.1,0.1-0.6,0.2-0.7,0.3c-0.1,0.2,0.3,0.4,0.3,0.6c0.6-0.4,1.3-0.8,2-1.3
			C20.8,48.2,21.6,47.9,20.9,47.5z M21.5,42.3c-1.1,0-2.2-0.1-3.3-0.3c0.5,0.4,1.4,0.4,2.1,0.5c1.1,0.1,2.1,0.1,3.1-0.2
			c0.9-0.2,1.9-0.5,2.9-0.7c0.5-0.1,0.9,0,0.8-0.6c-0.9,0.1-2,0.6-3,0.8C23.1,42.2,22.3,42.3,21.5,42.3z M21.7,48.3
			c-0.7,0.6-1.5,1.1-2.3,1.7c-0.2,0.1-0.4,0.2-0.6,0.4c0.1,0.1,0.1,0.3,0.2,0.4c0.3,0.1,0.5-0.2,0.7-0.3c0.6-0.4,1.2-0.8,1.8-1.2
			c0.2-0.1,0.6-0.3,0.7-0.5C22,48.7,21.7,48.3,21.7,48.3z M19.2,54.9c0.9-0.4,1.9-1.5,2.6-2.3c0.4-0.4,1-0.8,1-1.5
			c-0.9,0.8-1.9,1.5-2.8,2.4C19.4,54.1,19.5,54.2,19.2,54.9z M22.4,49.3c-0.7,0.6-1.4,1.1-2.3,1.7c-0.4,0.3-1,0.3-0.8,0.9
			c0.7-0.2,1.4-1.1,2.1-1.5c0.4-0.3,1-0.6,1.2-0.9C22.5,49.3,22.4,49.3,22.4,49.3z M19.8,52.4c0,0.1,0.1,0.2,0.1,0.3
			c0.8-0.7,1.7-1.3,2.4-2.1c0.2-0.2,0.5-0.4,0.6-0.7C21.9,50.7,20.7,51.5,19.8,52.4z M20.1,41c0,0.1,0,0.1,0,0.2
			c0.4-0.2,0.9-0.1,1.4-0.1c-0.5-0.6,2-1.7,2.3-1.9c1.5-1,3-2.2,4.4-3.4c-1.1,0-2.1,0.9-2.9,1.5c-1,0.7-2.1,1.5-3.2,2.3
			C21.7,40,20.8,41,20.1,41z M22.1,63.3c0.6-0.1,1.3-0.9,1.9-1.2c0.7-0.5,1.3-1,2.1-1.4c-0.9,0-1.4,0.5-2.1,1
			C23.3,62.2,22.7,62.7,22.1,63.3z M22.2,41c0.1,0.3,0.8,0,0.8-0.3C22.7,40.7,22.5,41,22.2,41z M22.2,64.2c2.9-0.3,5.5-2.3,7.4-4.3
			c-1.4,0-3,1.2-4.1,2C24.4,62.5,23.3,63.3,22.2,64.2z M31.3,38.1c-0.5,0.7-1.2,1.3-2,1.8c-0.4,0.3-1.3,0.3-1.2,1
			c0.7-0.3,1.4-0.8,2-1.3C30.5,39.3,31.5,38.4,31.3,38.1z M31.7,37.7c0,0.1-0.1,0.1-0.1,0.2C31.8,37.8,31.7,37.8,31.7,37.7z"/>
		<path d="M42.2,50.8c0,0.7-1.4,1.1-2,1.2c-0.9,0.2-2.1,0.2-3-0.3c-1.4-0.7-3.3-3.2-2.4-5c0.2-0.4,0.2-0.4,0.6-0.4
			c0.5,0,0.9,0,1.3,0c1-0.1,2.1-0.3,3.1-0.5c2.1-0.3,4.3-0.6,6.4-0.1c4,1,4.3,5.1,4.3,8.6c0,0.8,0,1.7,0,2.5c0,1.4-0.2,3.1,0.1,4.5
			c0.3,0.9,1.7,0.8,1.9,1.5c0.2,0.8-1.3,1.7-1.9,2c-2.1,1-4.8,0.6-5.8-1.8c-0.7,1-2.8,1.8-3.9,2.1c-1.4,0.3-3.1,0.1-4.3-0.7
			c-2.1-1.4-2.4-5.4-0.9-7.3c2.1-2.7,5.5-3.4,7.9-5.6c0.9-0.8,1-2.6-0.4-2.9c-0.6-0.2-1-0.1-1.3,0.4c-0.1,0.3-0.2,0.7-0.2,1
			C41.9,50.2,42.2,50.5,42.2,50.8z M42.6,61.1c2.9-0.4,2.3-4.5,2.3-6.5c-0.6,0.3-1.1,0.8-1.8,1.2s-1.2,0.9-1.8,1.5
			C40.5,58.6,40.4,61.4,42.6,61.1z"/>
		<path d="M61.5,39.6c-1,0.5-1,2-1,3c-0.1,0.7-0.4,3,0,3.5c0.7,0.6,2.5,0.6,3.2,0.2c0.5-0.3,0.9-0.9,1.2-1.3
			c0.3-0.5,0.4-0.9,0.9-0.6c2,1.3,1.9,4.3,0.5,6.1c-1.4,1.9-4.3,1.8-6.1,0.3c0,2.6,0,5.1,0,7.6c0,1.3-0.1,5.7,2.5,4.4
			c1-0.5,0.8-2.3,0.5-3.2c-0.3-0.9-2.2-2-0.6-2.7c2.4-1.1,5.5,0.3,6.1,2.9c0.5,2.6-2,4.5-4.1,5.4c-2.3,0.8-5.6,0.6-7.7-0.7
			c-1.1-0.7-1.9-1.7-2.5-2.9c-0.2-0.4-0.5-0.9-0.4-1.3c0.1-0.5,0.5-0.5,0.8-0.9c0.5-0.7,0.4-2.2,0.4-3c0-0.9,0-2,0-2.9
			c0-0.6,0-1.2,0-1.9c0-0.3,0-0.7,0-1c0-0.6,0.2-1.5-0.3-2c-0.7-0.5-1.4-0.3-2.1,0c-0.7,0.3-0.9-0.1-0.9-0.7c0-1.8,1.7-2.8,3.3-2.2
			c0-1.9-0.1-3.7-1.2-5.3c-0.4-0.5-1.5-1.3-1-2.2c0.5-0.8,1.4,0.3,2.3,0.4c2,0.3,3.6-1,5.5-1.2c0.7-0.1,1.7,0,2.3,0.5
			C64.2,39,62.2,39.2,61.5,39.6z"/>
		<path d="M77.6,54.3c1.3-1,2.6-3.1,1.8-4.8c-0.8-2-3.3-0.6-4.2,0.5c-1.9,2.4-2,7-0.1,9.4c2.3,2.9,5.9,3.6,9.1,1.8
			c0.5-0.3,1.7-1.2,1.7-0.1c0,0.6-0.5,1.2-1,1.8c-1.1,1.2-2.7,2.1-4.3,2.4c-3.7,0.8-7.3-0.4-9.8-3.3c-2.2-2.5-2.9-6.5-2.2-9.7
			c0.7-3.4,3.7-5.6,7-6.3c1.8-0.4,3.4-0.1,5.2-0.1c0.9,0,1.8-0.2,2.6-0.5c0.9-0.3,1-0.2,1.5,0.6c1.1,1.8,1.8,4,1.3,6.1
			c-0.4,2-2.1,3.4-3.7,4.2c-1.8,0.9-4,1.2-6,1.1c-0.7,0-1.7-0.2-1.2-1.2C75.4,55.4,76.9,54.8,77.6,54.3z"/>
		<path d="M95.6,39.6c-1,0.5-1,2-1,3c-0.1,0.7-0.4,3,0,3.5c0.7,0.6,2.5,0.6,3.2,0.2c0.5-0.3,0.9-0.9,1.2-1.3
			c0.3-0.5,0.4-0.9,0.9-0.6c2,1.3,1.9,4.3,0.5,6.1c-1.4,1.9-4.3,1.8-6.1,0.3c0,2.6,0,5.1,0,7.6c0,1.3-0.1,5.7,2.5,4.4
			c1-0.5,0.8-2.3,0.5-3.2c-0.3-0.9-2.2-2-0.6-2.7c2.4-1.1,5.5,0.3,6.1,2.9c0.5,2.6-2,4.5-4.1,5.4c-2.3,0.8-5.6,0.6-7.7-0.7
			c-1.1-0.7-1.9-1.7-2.5-2.9c-0.2-0.4-0.5-0.9-0.4-1.3c0.1-0.5,0.5-0.5,0.8-0.9c0.5-0.7,0.4-2.2,0.4-3c0-0.9,0-2,0-2.9
			c0-0.6,0-1.2,0-1.9c0-0.3,0-0.7,0-1c0-0.6,0.2-1.5-0.3-2c-0.7-0.5-1.4-0.3-2.1,0c-0.7,0.3-0.9-0.1-0.9-0.7c0-1.8,1.7-2.8,3.3-2.2
			c0-1.9-0.1-3.7-1.2-5.3c-0.4-0.5-1.5-1.3-1-2.2c0.5-0.8,1.4,0.3,2.3,0.4c2,0.3,3.6-1,5.5-1.2c0.7-0.1,1.7,0,2.3,0.5
			C98.2,39,96.3,39.2,95.6,39.6z"/>
		<path d="M109.7,50.8c0,0.7-1.4,1.1-2,1.2c-0.9,0.2-2.1,0.2-3-0.3c-1.4-0.7-3.3-3.2-2.4-5c0.2-0.4,0.2-0.4,0.6-0.4
			c0.5,0,0.9,0,1.3,0c1-0.1,2.1-0.3,3.1-0.5c2.1-0.3,4.3-0.6,6.4-0.1c4,1,4.3,5.1,4.3,8.6c0,0.8,0,1.7,0,2.5c0,1.4-0.2,3.1,0.1,4.5
			c0.3,0.9,1.7,0.8,1.9,1.5c0.2,0.8-1.3,1.7-1.9,2c-2.1,1-4.8,0.6-5.8-1.8c-0.7,1-2.8,1.8-3.9,2.1c-1.4,0.3-3.1,0.1-4.3-0.7
			c-2.1-1.4-2.4-5.4-0.9-7.3c2.1-2.7,5.5-3.4,7.9-5.6c0.9-0.8,1-2.6-0.4-2.9c-0.6-0.2-1-0.1-1.3,0.4c-0.1,0.3-0.2,0.7-0.2,1
			C109.3,50.2,109.7,50.5,109.7,50.8z M110.1,61.1c2.9-0.4,2.3-4.5,2.3-6.5c-0.6,0.3-1.1,0.8-1.8,1.2s-1.2,0.9-1.8,1.5
			C107.9,58.6,107.8,61.4,110.1,61.1z"/>
		<path d="M126.9,53.8c0,1.9,0.1,3.7,0.1,5.5c0,0.9-0.3,3.2,0.5,3.9c0.6,0.6,1.7,0.3,1.3,1.5c-0.2,0.7-0.8,0.9-1.5,1
			c-1.2,0.2-2.5-0.5-3.6-0.7c-0.7-0.1-1.4-0.2-2.2,0c-0.6,0.2-1.1,0.2-0.9-0.7c0.1-0.7,0.6-1.3,0.9-2c0.3-0.6,0.3-1.3,0.4-2.1
			c0.1-2.3,0.1-4.5,0.1-6.7c0-1.3,0.1-2.9-0.4-4.1c-0.5-1.1-2.7-1.9-2.2-3.3c0.4-1,2.6,0.1,3.4,0.1c0.7,0,1.5-0.1,2.3-0.2
			c0.5-0.1,1.7-0.6,2.1-0.1c0.4,0.5-0.2,1.3-0.3,1.9c0,0.3-0.1,0.7,0,1.1c0.1,0.5,0.1,0.5,0.5,0.2c0.7-0.5,1.2-1.3,1.9-2
			c0.6-0.6,1.3-1.2,2.1-1.7c2.9-1.5,5.5,2.3,6.2,4.6c1.2,3.8,0.2,8.4-1.3,12c-0.7,1.8-1.9,3.4-3.2,4.8c-0.3,0.3-2.3,3-3,2.5
			c1.7-4.3,3.2-9,2.4-13.6c-0.2-1.2-0.5-2.5-0.9-3.6c-0.2-0.7-0.6-1.7-1.3-2.1C128.4,49.1,126.9,52.3,126.9,53.8z"/>
		<path d="M165.7,31.8c0.9-0.2,0.8,1.2,0.4,1.7c-0.6,0.6-1.7,1.1-2.5,1.7c-1.5,1-3.2,2.5-5,2.8c-0.9,0.2-1.8,0-2.6-0.3
			c-0.8-0.4-1.4-1.1-2.4-1.5c-1.1-0.4-2.5-0.5-3.7,0.2c-0.3,0.2-0.5,0.3-0.5,0.7c0,0.3,0.3,0.7,0.5,0.9c0.4,0.4,1.5,0.6,1.8,1.1
			c0.4,0.9-0.8,0.8-1.3,0.6c-0.8-0.4-1.4-1-1.9-1.8c-2-3.5,1.2-7,4.6-7.5c2.2-0.3,4.1,0.4,6.1,1.1C161.4,32.4,163.5,32.6,165.7,31.8
			z M149.2,35.4c0.1,0,0.1-0.1,0.2-0.1c-0.5-0.2,1.7-1.7,2-1.9c0.9-0.6,1.8-1.1,2.8-1.7C152,31.7,149.5,33.1,149.2,35.4z
			 M151.8,34.6c1.4-0.8,2.9-1.8,4.3-2.6c-0.6-0.1-0.9-0.2-1.4,0.1c-0.5,0.3-1,0.6-1.7,0.9c-1,0.6-2,1.2-2.9,2
			C150.7,34.7,151.3,34.6,151.8,34.6z M172.7,32.5c0.6-0.3,0.9,0.6,0.6,1c-0.4,0.5-1,0.9-1.4,1.5c-0.8,1.3-1.2,3-1.4,4.5
			c-0.5,3.6-0.4,7.2-0.3,10.8c0.1,3.4,0,6.8-0.7,10.2c-0.5,2.8-1.9,5.1-4.3,6.4c-3.3,1.8-7.2,1.7-10.6,0.2c0.1-0.1,0.1-0.1,0.2-0.2
			c-0.8-0.2-4.3-1.3-4.2-2.5c0.1-0.9,1.3-0.3,1.9-0.3c0.8,0.1,1.7-0.1,2.5-0.4c0.7-0.3,1.5-0.8,2-1.7c0.3-0.6,0.1-0.8,0.1-1.4
			s0.2-1.1,0.2-1.8c-0.1-0.9-0.1-2-0.1-2.9c0-0.5,0-0.9,0-1.4c0-0.2,0.1-0.8,0-1c-0.3-0.6-1.4-0.1-2,0.1c-0.7,0.2-1.5,0.5-2.3,0.9
			c-0.4,0.2-1.8,0.7-1.5-0.3c0-0.2,0.5-0.9,0.6-1.1c0.3-0.7,0.7-1.3,1.2-2c0.5-0.5,1.1-1,1.8-1.3c0.4-0.2,0.8-0.3,1.2-0.4
			c0.7-0.1,0.6-0.1,0.8-0.7c-0.8-0.1-1.5-0.1-2.4,0.1c-0.6,0.1-1.9,0.9-2.4,0.7c-0.8-0.3-0.3-0.7-0.1-1.1c0.1-0.1,0.1-0.5,0.2-0.7
			c0.2-0.4,0.4-0.7,0.6-1c0.9-1.2,2.5-1.9,4-1.8c0.6,0,0.5-0.1,0.6-0.6c0.1-0.4,0.2-0.8,0.3-1.1c0.2-0.8,0.6-1.5,1-2.3
			c0.8-1.3,2-2.4,3.3-3.1c0.5-0.3,1.2-0.8,1.7-0.2c0.3,0.5-0.2,2.1-0.3,2.8c-0.5,3.7-0.4,7.4-0.1,11.1c0.2,2,0.3,3.8,0.3,5.8
			c0,2-0.1,4.3-1.4,6c2.5-1.7,2-5.9,1.9-8.5c-0.2-3.5-0.6-6.8-0.2-10.3c0.4-2.9-0.1-6.1,1.7-8.6c0.8-1.1,2-2.1,3.2-2.7
			C169.3,32.8,172.3,31.6,172.7,32.5z M152.8,34.6c0.3,0.1,0.9,0.4,1.2,0.4c0.3,0,1-0.6,1.3-0.8c0.8-0.5,1.8-1,2.7-1.5
			c-0.2-0.1-0.5-0.2-0.7-0.3c-0.2-0.2-0.5-0.2-0.7,0.1c-0.4,0.1-0.8,0.5-1.2,0.7C154.5,33.5,153.6,34.1,152.8,34.6z M153.1,53
			c0.1-0.1,0.1,0,0.1-0.2C153.2,52.9,153.2,53,153.1,53z M155.6,50.9c-0.9,0.4-1.7,1-2.3,1.9C154.1,52.1,154.9,51.5,155.6,50.9z
			 M154,47.7c0.5-0.5,1-1,1.5-1.4c-0.9,0.2-1.7,0.8-2.2,1.5C153.6,47.8,153.8,47.7,154,47.7z M156.8,64.1c-0.8,0.7-2,1.2-3.1,1.3
			c0.2,0.1,0.8,0.4,1,0.3c0.2,0,0.7-0.5,0.8-0.7C155.9,64.9,156.8,64.4,156.8,64.1z M156.2,52.1c1-0.9,2.1-1.8,3.2-2.6
			c0.5-0.4,1-0.7,1.5-1c0.2-0.1,0.8-0.4,0.9-0.6c0.1-0.2,0-0.8,0-1c-0.6,0.6-1.5,1.1-2.3,1.7c-0.3,0.2-0.6,0.5-0.9,0.7
			c-0.2,0.2-0.4,0.3-0.6,0.5c0,0.2,0,0.4,0,0.5c-0.2,0.5-0.9,0.2-1.3,0.5c-0.8,0.5-1.5,1.2-2.3,1.9
			C154.9,52.4,155.6,52.2,156.2,52.1z M154.6,35.3c0.2,0.1,0.4,0.2,0.6,0.4c0.2,0.3,0.4,0.3,0.6,0c0.4-0.1,0.8-0.6,1.2-0.9
			c0.8-0.6,1.7-1.1,2.5-1.7c-0.5-0.2-0.6-0.3-1.1-0.1c-0.4,0.1-0.8,0.5-1.2,0.7C156.3,34.2,155.4,34.7,154.6,35.3z M155,47.5
			c0.6-0.1,1,0,1.4-0.4c0.4-0.3,0.8-0.6,1.2-1c-0.3,0-0.8,0-1.1,0.1C156,46.3,155.4,47,155,47.5z M156.8,66.4c0.6,0.1,2.2-1.5,2.6-2
			c-0.3-0.1-0.6-0.2-0.9-0.3c-0.5-0.2-0.6-0.2-1,0.1c-0.6,0.5-1.3,1-2,1.7c0.3,0.1,0.3,0.3,0.5,0.4c0.2,0.1,0.3,0.1,0.5,0.2
			C156.6,66.4,156.7,66.3,156.8,66.4z M155.9,36.1c0.2,0.1,0.4,0.3,0.5,0.3c0.4,0.1,0.4,0.1,0.7-0.2c0.4-0.3,0.9-0.6,1.3-0.9
			c0.9-0.6,1.9-1.2,2.8-1.9c-0.3,0-0.9-0.3-1.2-0.2c-0.4,0.1-0.9,0.5-1.1,0.7C158,34.7,156.9,35.4,155.9,36.1z M156.8,47.5
			c0.6,0.1,0.8-0.1,1.2-0.5c0.4-0.3,0.8-0.6,1.3-0.9c0.4-0.3,2.1-1.7,2.5-1.3c0-0.4,0-0.7,0-1.1C160.1,44.9,158.4,46.1,156.8,47.5z
			 M157,52.1c0.7,0.1,0.7,0.3,1.3-0.1c0.5-0.4,1-0.8,1.5-1.2c0.5-0.3,0.9-0.7,1.4-1c0.1-0.1,0.6-0.3,0.6-0.4c0.1-0.1,0-0.7,0-0.8
			C160.1,49.6,158.5,50.9,157,52.1z M157.2,63.7c1-0.7,2.1-1.4,3-2.3c0.5-0.4,0.9-0.7,1.4-1.1c0.5-0.4,0.6-0.4,0.6-1.1
			c-0.1,0.3-1,0.7-1.2,0.9c-0.5,0.4-1.1,0.7-1.7,1.1c-0.5,0.3-0.9,0.6-1.2,1.1S157.7,63.2,157.2,63.7z M160.9,35.6
			c1-0.7,2.1-1.4,3.1-2.2c-0.5,0.1-1.1-0.1-1.7,0.1c-0.5,0.1-1.2,0.7-1.7,1c-1.1,0.7-2.2,1.4-3.2,2.3
			C158.6,36.9,159.9,36.3,160.9,35.6z M168.5,59.6c0.1-0.6,0.2-1.3,0.3-2c-0.6,0.5-1.1,1-1.8,1.5c-0.5,0.5-1.3,1-1.9,1.5
			c-0.4,0.5-0.6,1.7-1.1,2.3c-0.5,0.6-1.1,1.2-1.9,1.5c-0.4,0.2-0.8,0.3-1.2,0.3c-0.6,0-0.7-0.1-1.2,0.2c-0.8,0.5-1.5,1.2-2.3,1.9
			c0.4,0.1,1.1,0.3,1.5,0.2c0.5-0.1,1-0.6,1.4-0.9c0.9-0.7,1.9-1.4,2.8-2.2c0.8-0.7,1.8-1.4,2.6-2.1
			C166.1,61.5,168.1,59.4,168.5,59.6z M158,48c0.3,0.3,0.1,0.7,0,1c0.4-0.3,3.4-2.8,3.8-2.5c0-0.5,0-1,0-1.5
			C161.2,45.6,157.8,47.2,158,48z M158.2,52.8c0.1,0.3-0.1,0.3,0,0.5c0,0.4,0.1,0.7,0.2,1.1c0.7-0.7,1.5-1.4,2.4-2.1
			c0.3-0.3,0.9-0.5,1.2-0.8s0.1-1,0-1.5C160.6,50.9,159.4,51.8,158.2,52.8z M158.4,55c0,0.4,0.1,0.7,0.1,1.1
			c0.9-0.7,1.9-1.4,2.8-2.2c0.2-0.2,0.8-0.5,0.9-0.7c0.1-0.3-0.1-0.9-0.1-1.2c-0.7,0.5-1.3,1-2,1.5C159.7,53.9,158.8,55,158.4,55z
			 M162.3,59.1c0-0.5,0.1-1.1,0.1-1.7c-0.8,0.6-1.5,1.2-2.4,1.9c-0.4,0.3-0.7,0.6-1,0.9c-0.5,0.4-0.6,0.5-0.6,1.1
			c0.7-0.5,1.4-0.9,2.1-1.4C160.6,59.7,162.2,58.5,162.3,59.1z M158.7,63.3c-0.1,0.1-0.2,0.2-0.3,0.3c1.9-0.2,3.3-1,3.7-2.9
			C161,61.5,159.7,62.4,158.7,63.3z M158.4,60c1-0.9,2.2-1.8,3.3-2.6c0.2-0.1,0.7-0.4,0.8-0.6c0.1-0.2,0-0.7,0-0.9
			c0-0.7-0.1-1.3-0.1-2.1c-0.8,0.7-1.7,1.3-2.5,2c-0.3,0.2-1.1,0.6-1.2,0.9c-0.1,0.3,0,0.9,0,1.2c0.7-0.6,1.5-1.2,2.3-1.9
			c0.1-0.1,0.7-0.6,0.9-0.6c0.7-0.1,0.2,0.4,0,0.6c-0.6,0.6-1.4,1-2.1,1.5c-0.3,0.2-0.9,0.6-1.1,0.9C158.3,59,158.4,59.6,158.4,60z
			 M158.6,44.6c-0.1,0.3-0.1,0.6-0.1,0.9c0.7-0.5,1.4-1.1,2.2-1.7c0.3-0.2,0.7-0.4,0.9-0.7c0.4-0.4,0.3-0.7,0.4-1.3
			C160.8,42.6,159.6,43.5,158.6,44.6z M159.4,42c-0.3,0.5-0.5,1.1-0.6,1.7c0.7-0.6,1.4-1.2,2.2-1.8c0.3-0.2,0.8-0.5,1-0.7
			c0.2-0.3,0.2-0.7,0.3-1.1C161.3,40.7,160.3,41.4,159.4,42z M168.2,60.8c0-0.2,0.1-0.3,0.1-0.5c-2.7,2.4-5.5,4.6-8.3,6.8
			c1,0,1.9-0.1,2.6-0.8c0.7-0.6,1.5-1.3,2.3-2c0.2-0.2,1.7-1.7,2-1.4c0.4,0.2,0,0.5-0.2,0.6c-1,1.1-2.4,2.1-3.5,3.1
			C165.8,65.5,167.7,63.5,168.2,60.8z M162.4,38.9c-0.8,0.5-1.5,1.1-2.2,1.9C161,40.2,162.2,39.7,162.4,38.9z M164.9,46.6
			c0,0.6,0,1.2,0,2c0.9-0.9,1.8-1.8,2.7-2.6c0.2-0.2,0.4-0.3,0.6-0.5c0.1-0.1,0.7-0.4,0.7-0.4c0.2-0.3,0-1.2,0-1.7
			c-0.7,0.4-1.5,0.9-2.2,1.5C166.5,45.2,165.2,46.7,164.9,46.6z M165.2,52.8c0.6-0.5,1.2-1,1.9-1.5c0.3-0.3,0.7-0.5,1-0.8
			c0.2-0.2,0.8-0.4,0.9-0.7c0.2-0.5,0-1.5,0-2.2c0-0.7,0-1.4,0-2.1c-0.9,0.8-1.9,1.7-2.8,2.5c-0.3,0.3-1.1,0.8-1.2,1.2
			c-0.1,0.4,0.1,1.3,0.1,1.8c0.7-0.7,1.4-1.4,2.3-2.2c0.2-0.2,0.8-0.9,1.1-1c0.5-0.1,0.4,0.2,0.2,0.5c-0.4,0.7-1.5,1.3-2.2,2
			c-0.3,0.3-0.8,0.7-1.1,1.1C165.1,51.9,165.2,52.2,165.2,52.8z M169,42.7c0-0.6,0.1-1.3,0.2-2c-0.8,0.8-1.9,1.4-2.8,2.3
			c-0.4,0.4-1,0.8-1.2,1.3c-0.2,0.4-0.2,1.2-0.2,1.7C166.1,44.7,167.5,43.5,169,42.7z M168.8,57c0-0.4,0.1-0.8,0.1-1.2
			c-0.7,0.7-1.5,1.3-2.2,2.1c-0.3,0.4-0.7,0.7-1,1.1c-0.4,0.4-0.4,0.5-0.5,1.1c0.6-0.5,1.2-1.1,1.9-1.7
			C167.4,58.1,168.4,57,168.8,57z M169.6,37.7c0.2-0.9,0.5-1.9,0.9-2.7c-1,0.9-2.2,1.9-3.2,2.8c-0.5,0.4-1,0.9-1.5,1.3
			c-0.6,0.5-0.5,0.9-0.5,1.8c0.8-0.7,1.8-1.4,2.6-2.2c0.3-0.2,0.8-0.9,1.2-0.9c0.7,0-0.2,0.7-0.3,0.8c-0.8,0.6-1.5,1.2-2.4,2
			c-0.4,0.3-0.9,0.6-1.1,1.1c-0.1,0.4-0.1,1.1-0.1,1.5c0.3-0.3,3.6-3.4,3.9-3C169.3,39.4,169.4,38.6,169.6,37.7z M169,50.3
			c-0.9,0.7-1.9,1.4-2.8,2.3c-0.3,0.2-0.8,0.6-0.9,0.9c-0.2,0.4,0.1,1.2,0.1,1.7c0.7-0.8,1.5-1.5,2.4-2.3c0.3-0.3,0.8-0.6,1.1-0.9
			c0.1,0,0.2,0,0.2,0c0-0.2,0-0.4,0-0.6C169,51.1,169,50.8,169,50.3z M169,55.1c0-0.3,0-0.5,0-0.8c-0.4,0.3-3.5,3.3-3.7,3.1
			c0,0.4,0,0.8,0,1.2c0.6-0.6,1.2-1.3,1.9-2C167.5,56.3,168.4,55.1,169,55.1z M169,53.7c0-0.4,0-0.7,0-1.1c-0.8,0.6-1.5,1.3-2.3,2.1
			c-0.3,0.3-0.7,0.7-1,1c-0.2,0.2-0.3,0.1-0.4,0.4c-0.1,0.2,0,0.7,0,0.9C166.4,55.7,167.7,54.6,169,53.7z M170.9,34.6
			c0.2-0.3,0.4-0.7,0.7-1c-2.8,0.4-5.7,2.4-6.1,5.3c0.9-0.8,1.9-1.7,2.8-2.4C168.6,36.1,170.6,34.1,170.9,34.6z"/>
		<path d="M179.6,53.8c0,1.9,0.1,3.7,0.1,5.5c0,0.9-0.3,3.2,0.5,3.9c0.6,0.6,1.7,0.3,1.3,1.5c-0.2,0.7-0.8,0.9-1.5,1
			c-1.2,0.2-2.5-0.5-3.6-0.7c-0.7-0.1-1.4-0.2-2.2,0c-0.6,0.2-1.1,0.2-0.9-0.7c0.1-0.7,0.6-1.3,0.9-2c0.3-0.6,0.3-1.3,0.4-2.1
			c0.1-2.3,0.1-4.5,0.1-6.7c0-1.3,0.1-2.9-0.4-4.1c-0.5-1.1-2.7-1.9-2.2-3.3c0.4-1,2.6,0.1,3.4,0.1c0.7,0,1.5-0.1,2.3-0.2
			c0.5-0.1,1.7-0.6,2.1-0.1c0.4,0.5-0.2,1.3-0.3,1.9c0,0.3-0.1,0.7,0,1.1c0.1,0.5,0.1,0.5,0.5,0.2c0.7-0.5,1.2-1.3,1.9-2
			c0.6-0.6,1.3-1.2,2.1-1.7c2.9-1.5,5.5,2.3,6.2,4.6c1.2,3.8,0.2,8.4-1.3,12c-0.7,1.8-1.9,3.4-3.2,4.8c-0.3,0.3-2.3,3-3,2.5
			c1.7-4.3,3.2-9,2.4-13.6c-0.2-1.2-0.5-2.5-0.9-3.6c-0.2-0.7-0.6-1.7-1.3-2.1C181.1,49.1,179.6,52.3,179.6,53.8z"/>
		<path d="M194.7,37.9c1.3-0.9,3-0.8,4.5-0.5c1.7,0.3,3.3,0.4,5,0.1c0.4-0.1,1.2-0.4,1.5-0.2c0.4,0.3,0.2,1.7,0.2,2.1
			c-0.2,1.3-1,2.8-2.4,3.5c-1.5,0.7-3.2,0.2-4.7-0.1c-1.2-0.3-2.9-0.1-2.7,1.7c0.5,3.5,5.6,1.8,7.6,1.5c0,0.6,0.3,1,0,1.7
			c-0.2,0.4-0.7,0.7-1.1,0.8c-0.8,0.2-2.5-0.3-3.1,0.2c-0.5,0.4-0.3,2.1-0.3,2.7c0,0.8,0,1.5,0,2.4c0,2.2,0.1,4.3,0.1,6.5
			c0,0.8,0,1.8,0.6,2.5c0.3,0.4,0.7,0.6,1.1,0.9c0.4,0.2,1.5,0.4,1.5,1c0.1,0.9-1.4,1.2-2.2,1.2c-1.1,0-2.2-0.5-3.3-0.8
			c-0.9-0.3-1.9-0.4-2.8-0.3c-0.5,0.1-2.7,1.2-2.3-0.3c0.1-0.3,0.6-0.7,0.7-0.9c0.4-0.4,0.8-0.8,1-1.4c0.3-0.7,0.3-1.4,0.3-2.3
			c0-2.1,0-4.1,0-6.2c0-1.2,0-2.4,0-3.6c0-0.3,0.2-1.3,0-1.7c-0.3-0.4-2,0.4-2.2-0.3c-0.2-0.4,0.4-1.1,0.7-1.3
			c0.4-0.3,1.1-0.3,1.7-0.2C194.2,43.9,191.7,39.8,194.7,37.9z"/>
		<path d="M205.6,56.1c-0.5-3.4,0.2-6.5,2.8-8.8c1.3-1.1,2.9-1.8,4.6-2.1c0.6-0.1,2-0.4,2.5-0.1c0.7,0.3,0.1,0.8-0.3,1.2
			c2.6-1.3,6.6,0.1,8.6,2.1c2.2,2.1,2.2,5.7,1.8,8.4c-0.5,3-2.3,6.2-5.1,7.6c-2.6,1.2-5.9,1.2-8.6,0.2C208.1,63,206.1,60,205.6,56.1
			z M218.6,58.7c1.1-1.4,1.2-4.3,0.1-5.9c-0.7-0.8-1.9-1.4-2.9-0.7c-0.7,0.5-0.9,1.7-0.3,2.3c0.3,0.3,0.6,0.1,0.2,0.6
			c-0.3,0.3-1,0.3-1.3,0.3c-1.2,0-2.3-0.6-2.9-1.7c-0.6-1-0.8-2.3-0.5-3.5c0.2-0.7,0.9-2.3,1.9-2.5c-3.5,1.3-4.4,6-2.9,9.1
			C211.5,59.9,216.1,62,218.6,58.7z"/>
		<path d="M232.8,59.9c0.1,0.9,0.4,1.7,1.1,2.2c0.3,0.2,0.9,0.2,1.1,0.5c0.4,0.4,0.1,1-0.1,1.4c-1.2,2-3.7,0.9-5.6,0.6
			c-0.9-0.1-1.8-0.2-2.6,0c-0.2,0.1-1,0.5-1.2,0.3c-0.2-0.2,0.1-1.1,0.1-1.3c0.3-0.9,0.9-1.2,1.5-2c0.6-0.6,0.7-1.4,0.7-2.3
			c0.1-2.5,0.1-5,0-7.4c0-0.5-0.1-1-0.3-1.5c-0.4-1-1.1-1.5-1.8-2.4c-0.4-0.5-0.7-1.7,0.1-2.1c0.4-0.2,0.6,0.2,0.9,0.3
			c0.4,0.2,0.9,0.3,1.4,0.3c1,0,2-0.4,3-0.6c0.5-0.1,1.9-0.5,2.3,0.1c0.3,0.4-0.1,0.7-0.3,1c-0.3,0.4-0.4,0.9-0.4,1.4
			c-0.1,0.6,0,1.2,0,1.8c1-1.9,2.5-5.6,5.3-5c1.7,0.3,1.8,2,1.7,3.2c0,0.7,0,1.4-0.1,2.2c-0.1,0.9-0.3,1.5-0.6,2.4
			c-1.4-1.8-4.5-3-5.9-0.3c-0.4,0.9-0.4,2.1-0.4,3C232.7,57.3,232.7,58.7,232.8,59.9z"/>
		<path d="M258.2,63.5c0.6,0.7-0.3,1.7-0.9,2c-0.6,0.2-1.2,0.2-1.9,0c-0.9-0.2-1.9-0.4-2.8-0.5c-0.4,0-0.7-0.1-1.1,0
			c-0.3,0.1-0.7,0.3-1,0.3c-0.7-0.2-0.4-0.8-0.1-1.2c0.6-0.7,1.3-1.2,1.5-2.2c0.3-1.7,0.1-3.6,0-5.3c-0.1-1.7-0.1-3.9-1-5.3
			c-0.7-1-2.1-0.6-2.6,0.3c-0.8,1.7-1,3.7-1,5.5c-0.1,1.7-0.3,4.1,0.5,5.7c0.3,0.6,1.1,0.6,1.4,1.2c0.4,0.8-0.4,1.4-1.1,1.7
			c-1.4,0.3-2.7-0.4-4.1-0.6c-0.4-0.1-0.8-0.1-1.2-0.1s-0.7,0.2-1.1,0.2c-0.9,0.1-0.7-0.6-0.3-1.2c0.5-0.8,0.9-1.4,1-2.5
			c0.1-1,0.1-2.1,0.2-3.1c0.1-2.9,0.2-6-0.3-8.9c-0.1-0.5-0.2-1.1-0.5-1.5c-0.4-0.5-1.9-0.7-2-1.4c-0.4-1.4,3.1-0.3,3.7-0.3
			c1.1,0,2-0.3,3.1-0.5c0.3-0.1,0.7-0.2,1,0.1c0.4,0.4,0.1,0.8,0,1.2c-0.1,0.4-0.6,2.1-0.1,2.4c0.3,0.1,0.9-0.7,1.1-0.9
			c1.1-1.1,2.5-3.3,4.3-3.2c2.1,0.1,2.7,2.7,3.5,4.1c1.5-2,3.6-5.5,6.5-3.6c2.7,1.8,3.6,5.2,3.6,8.1c-0.1,3.3-0.7,6.9-2.4,9.8
			c-0.8,1.4-2,2.8-3.1,3.9c-0.3,0.3-1.9,2.1-2.5,1.7c1.2-3,2.4-6.1,2.8-9.3c0.2-1.8,0.2-3.6,0-5.4c-0.1-1.2-0.1-3.3-1-4.3
			s-2,0.2-2.5,0.9c-0.8,1.1-0.8,2.3-0.9,3.6c0,1.8,0,3.4,0,5.2c0,0.7-0.1,1.5,0.2,2.3C257.2,63.1,257.6,63.2,258.2,63.5z"/>
		<path d="M274.2,50.8c0,0.7-1.4,1.1-2,1.2c-0.9,0.2-2.1,0.2-3-0.3c-1.4-0.7-3.3-3.2-2.4-5c0.2-0.4,0.2-0.4,0.6-0.4
			c0.5,0,0.9,0,1.3,0c1-0.1,2.1-0.3,3.1-0.5c2.1-0.3,4.3-0.6,6.4-0.1c4,1,4.3,5.1,4.3,8.6c0,0.8,0,1.7,0,2.5c0,1.4-0.2,3.1,0.1,4.5
			c0.3,0.9,1.7,0.8,1.9,1.5c0.2,0.8-1.3,1.7-1.9,2c-2.1,1-4.8,0.6-5.8-1.8c-0.7,1-2.8,1.8-3.9,2.1c-1.4,0.3-3.1,0.1-4.3-0.7
			c-2.1-1.4-2.4-5.4-0.9-7.3c2.1-2.7,5.5-3.4,7.9-5.6c0.9-0.8,1-2.6-0.4-2.9c-0.6-0.2-1-0.1-1.3,0.4c-0.1,0.3-0.2,0.7-0.2,1
			C273.9,50.2,274.2,50.5,274.2,50.8z M274.6,61.1c2.9-0.4,2.3-4.5,2.3-6.5c-0.6,0.3-1.1,0.8-1.8,1.2s-1.2,0.9-1.8,1.5
			C272.5,58.6,272.4,61.4,274.6,61.1z"/>
		<path d="M293.5,39.6c-1,0.5-1,2-1,3c-0.1,0.7-0.4,3,0,3.5c0.7,0.6,2.5,0.6,3.2,0.2c0.5-0.3,0.9-0.9,1.2-1.3
			c0.3-0.5,0.4-0.9,0.9-0.6c2,1.3,1.9,4.3,0.5,6.1c-1.4,1.9-4.3,1.8-6.1,0.3c0,2.6,0,5.1,0,7.6c0,1.3-0.1,5.7,2.5,4.4
			c1-0.5,0.8-2.3,0.5-3.2c-0.3-0.9-2.2-2-0.6-2.7c2.4-1.1,5.5,0.3,6.1,2.9c0.5,2.6-2,4.5-4.1,5.4c-2.3,0.8-5.6,0.6-7.7-0.7
			c-1.1-0.7-1.9-1.7-2.5-2.9c-0.2-0.4-0.5-0.9-0.4-1.3c0.1-0.5,0.5-0.5,0.8-0.9c0.5-0.7,0.4-2.2,0.4-3c0-0.9,0-2,0-2.9
			c0-0.6,0-1.2,0-1.9c0-0.3,0-0.7,0-1c0-0.6,0.2-1.5-0.3-2c-0.7-0.5-1.4-0.3-2.1,0c-0.7,0.3-0.9-0.1-0.9-0.7c0-1.8,1.7-2.8,3.3-2.2
			c0-1.9-0.1-3.8-1.2-5.3c-0.4-0.5-1.5-1.3-1-2.2c0.5-0.8,1.4,0.3,2.3,0.4c2,0.3,3.6-1,5.5-1.2c0.7-0.1,1.7,0,2.3,0.5
			C296.2,39,294.2,39.2,293.5,39.6z"/>
		<path d="M307.4,51.7c-0.1,2.5-0.2,5,0,7.3c0.1,0.8,0.1,1.9,0.5,2.7c0.4,0.8,1.7,0.5,2,1.2c0.4,0.9-0.8,2-1.7,2.2
			c-1,0.3-2.3-0.1-3.3-0.2c-0.9-0.1-1.9-0.3-2.8-0.1c-0.3,0.1-0.8,0.3-1.1,0.2c-0.4-0.2-0.1-0.7,0-1c0.4-1,1.1-2,1.3-3.2
			c0.2-1,0.3-2.1,0.3-3c0.1-2.1,0.1-4.2-0.2-6.3c-0.2-1-0.6-1.9-1.2-2.7c-0.5-0.5-1.7-1.4-1.4-2.3c0.2-1,1.4-0.2,2.1,0
			c0.9,0.3,1.9,0.2,2.8-0.1c1.1-0.3,2.2-0.9,3.3-0.9c0.5,0,1.1,0,1.5,0.3s0.9,1.1,0.7,1.7c-0.2,0.4-0.7,0.3-1.1,0.3
			c-0.5,0.1-0.9,0.3-1.1,0.7C307.3,49.4,307.4,50.8,307.4,51.7z M307.2,38c1.1,1.2,1,3.3-0.2,4.4c-1.1,1-3.2,0.9-4.3-0.2
			c-1.1-1.2-1-3.2,0.1-4.3C303.9,36.8,306.1,36.8,307.2,38z"/>
		<path d="M318.5,51.6c0.8,0.5,2.4-0.5,3-0.9c0.8-0.6,1.1-1.5,0.9-2.6c-0.1-0.7-1.3-1.4-0.8-2.1c0.6-0.8,2.3-0.8,3.2-0.6
			c2,0.4,3.5,2.6,2.5,4.5c-0.5,1-1.7,1.7-2.7,2.1c-0.6,0.3-1.5,0.8-2.3,0.6c1.9-0.2,3.9,0.6,5.3,2c1.3,1.3,1.4,3.3,1.7,5.1
			c0.1,1.4-0.1,3.2-1.8,3.5c-0.6,0.1-0.9,0-1,0.6c-0.2,0.9,0.1,2.1,1,2.5c0-1.9,2.5-2.6,3.7-1.4c1.4,1.3,0.5,3.7-1,4.4
			c-1.7,0.8-3.7,0.3-5.2-0.8c-1.4-1.1-2.1-2.7-2.2-4.5c0-1.5,0.3-3.1,0.2-4.7c-0.1-1.5-0.5-4.2-2.5-4.5c-2-0.4-2.3,2.3-2.4,3.6
			c0,0.7,0,1.5,0,2.4c0.2,1.3,0.9,1.3,1.9,2.2c0.6,0.4,0.4,1.4-0.1,2c-0.5,0.4-1.5,0.4-2.2,0.4c-0.8,0-1.7-0.2-2.5-0.3
			c-0.9-0.1-1.9,0-2.8,0.1c-0.3,0-0.9,0.1-0.9-0.3c0-0.2,0.6-0.8,0.7-1c0.6-0.9,0.9-1.8,0.9-2.8c0.1-2.2,0-4.2,0-6.4
			c0-3.3,0.2-6.7-0.1-10.1c-0.1-0.9-0.3-1.8-0.7-2.6c-0.4-0.8-1.2-1.5-1.5-2.5c-0.2-0.4-0.2-1.4,0.4-1.7c0.3-0.1,0.8,0.2,1.1,0.3
			c0.4,0.2,0.8,0.3,1.3,0.3c1.9,0.1,3.4-1.3,5.3-1.2c0.9,0,1.9,0.5,2,1.5c0.1,0.7-0.3,0.6-0.8,0.6c-0.5,0.1-0.9,0.3-1.2,0.7
			c-1.1,1.5-0.8,4.4-0.8,6.2c0,1.1,0,2.3,0.1,3.4C318.2,49.9,318.1,51.2,318.5,51.6z"/>
		<path d="M338,50.8c0,0.7-1.4,1.1-2,1.2c-0.9,0.2-2.1,0.2-3-0.3c-1.4-0.7-3.3-3.2-2.4-5c0.2-0.4,0.2-0.4,0.6-0.4c0.5,0,0.9,0,1.3,0
			c1-0.1,2.1-0.3,3.1-0.5c2.1-0.3,4.3-0.6,6.4-0.1c4,1,4.3,5.1,4.3,8.6c0,0.8,0,1.7,0,2.5c0,1.4-0.2,3.1,0.1,4.5
			c0.3,0.9,1.7,0.8,1.9,1.5c0.2,0.8-1.3,1.7-1.9,2c-2.1,1-4.8,0.6-5.8-1.8c-0.7,1-2.8,1.8-3.9,2.1c-1.4,0.3-3.1,0.1-4.3-0.7
			c-2.1-1.4-2.4-5.4-0.9-7.3c2.1-2.7,5.5-3.4,7.9-5.6c0.9-0.8,1-2.6-0.4-2.9c-0.6-0.2-1-0.1-1.3,0.4c-0.1,0.3-0.2,0.7-0.2,1
			C337.7,50.2,338,50.5,338,50.8z M338.4,61.1c2.9-0.4,2.3-4.5,2.3-6.5c-0.6,0.3-1.1,0.8-1.8,1.2s-1.2,0.9-1.8,1.5
			C336.2,58.6,336.1,61.4,338.4,61.1z"/>
	</g>
</g>
</svg>
